<svg xmlns="http://www.w3.org/2000/svg" viewBox="0 0 197.86 67.75"><defs><style>.cls-1{fill:#d87046;}</style></defs><title>logo</title><g id="图层_2" data-name="图层 2"><g id="图层_1-2" data-name="图层 1"><path class="cls-1" d="M72.89,28.15V38.64h7.65V28.15h2.67V38a3.65,3.65,0,0,1-.59,2.42,3.06,3.06,0,0,1-2.27.64H73.06a3.06,3.06,0,0,1-2.26-.64A3.63,3.63,0,0,1,70.2,38V28.15Z"/><polygon class="cls-1" points="88.17 41.08 88.17 28.15 99.83 28.15 99.83 30.41 90.85 30.41 90.85 33.81 95.71 33.81 95.71 36.17 90.85 36.17 90.85 41.08 88.17 41.08"/><path class="cls-1" d="M105.43,28.15,98.91,41.08h2.67l1.34-2.82h7.31l1.39,2.82h3L108,28.15Zm-1.36,7.76,2.57-5.26,2.49,5.26Z"/><path class="cls-1" d="M127.46,28.15h-6.89a3,3,0,0,0-2.27.65,3.65,3.65,0,0,0-.59,2.41V38a3.65,3.65,0,0,0,.59,2.42,3.06,3.06,0,0,0,2.27.64h6.89a3.06,3.06,0,0,0,2.27-.64,3.63,3.63,0,0,0,.59-2.42V35.87h-2.69v2.78H120.4V30.46h7.24v2.45h2.69v-1.7a3.63,3.63,0,0,0-.59-2.41,3,3,0,0,0-2.27-.65"/><polygon class="cls-1" points="133.25 30.46 138.54 30.46 138.54 41.08 141.23 41.08 141.23 30.46 146.54 30.46 146.54 28.15 133.25 28.15 133.25 30.46"/><path class="cls-1" d="M160.94,28.15h-8.49a3,3,0,0,0-2.27.65,3.65,3.65,0,0,0-.59,2.41V38a3.65,3.65,0,0,0,.59,2.42,3.06,3.06,0,0,0,2.27.64h8.49a3.06,3.06,0,0,0,2.27-.64A3.65,3.65,0,0,0,163.8,38V31.21a3.65,3.65,0,0,0-.59-2.41,3,3,0,0,0-2.27-.65m.19,10.49h-8.85V30.46h8.85Z"/><path class="cls-1" d="M178.3,36.2a2.78,2.78,0,0,0,2-.6,2.56,2.56,0,0,0,.62-1.91v-3a2.56,2.56,0,0,0-.62-1.91,2.81,2.81,0,0,0-2-.59h-9.87V41.08h2.64V36.2h2.54l4.65,4.88h3.85l-5.33-4.88ZM171.07,34v-3.6h6a1.49,1.49,0,0,1,1,.23,1,1,0,0,1,.26.79V33a1,1,0,0,1-.26.8,1.49,1.49,0,0,1-1,.23Z"/><polygon class="cls-1" points="194.7 28.15 190.74 32.91 186.77 28.15 183.19 28.15 189.18 35.29 189.18 41.08 191.89 41.08 191.89 35.22 197.86 28.15 194.7 28.15"/><path class="cls-1" d="M57.92,15.66,31.55.43a3.66,3.66,0,0,0-3.45,0L1.72,15.66a3.65,3.65,0,0,0-1.72,3V49.1a3.65,3.65,0,0,0,1.72,3L28.1,67.32a3.66,3.66,0,0,0,3.45,0L57.92,52.09a3.65,3.65,0,0,0,1.72-3V18.64a3.65,3.65,0,0,0-1.72-3M56.86,49.1a1,1,0,0,1-.33.57L30.15,64.9a1,1,0,0,1-.66,0L3.12,49.67a1,1,0,0,1-.33-.57V18.64a1,1,0,0,1,.33-.57L29.49,2.85a1,1,0,0,1,.66,0L56.53,18.07a1,1,0,0,1,.33.57Z"/><path class="cls-1" d="M50.49,19.87l-19.12-11a3.8,3.8,0,0,0-3.42,0l-19.12,11a3.8,3.8,0,0,0-1.71,3V44.91a3.8,3.8,0,0,0,1.71,3l19.12,11a3.79,3.79,0,0,0,3.42,0l19.12-11a3.8,3.8,0,0,0,1.71-3V22.84a3.8,3.8,0,0,0-1.71-3M29.66,42H15.84a1.32,1.32,0,0,1-1.35-1.35c0-1.35,0-13.7,0-13.7h3.13V39.12h8.91V26.91h3.11Zm16-12.42H35.9v4h9.46v2.75H35.9V42H32.77V26.91H44.35a1.39,1.39,0,0,1,1.35,1.35Z"/></g></g></svg>