<svg xmlns="http://www.w3.org/2000/svg" viewBox="0 0 33.7 25.17"><defs><style>.cls-1{fill:#fff;}</style></defs><title>资源 10</title><g id="图层_2" data-name="图层 2"><g id="图层_1-2" data-name="图层 1"><path class="cls-1" d="M20.43,7.89a1.57,1.57,0,1,0,3.14,0h0a1.57,1.57,0,1,0-3.14,0Z"/><path class="cls-1" d="M14.93,6.32a1.57,1.57,0,1,0,1.57-1.57A1.57,1.57,0,0,0,14.93,6.32Z"/><path class="cls-1" d="M29,12.07c0,.2,0,.38,0,.59-.93,6.17-6.88,11-13.28,11-3.48,0-5.79-1.32-6-3a3.55,3.55,0,0,0-4.15-3.36c-2.54.32-4,.52-4-2.1C1.5,7.91,8.1,2.4,15.22,1.61c4.64-.52,9.61.9,12.14,4.23l1.15-1.15C25.68,1.19,20.44-.47,15.33.11,7.15,1.05-.26,6.51,0,15.75c.08,2.59,2.61,3.55,5.5,2.9,2.3-.53,2.49,1.78,3,3.4.56,1.89,4.17,3.13,7.28,3.13a15,15,0,0,0,14.82-13,11.38,11.38,0,0,0,.07-1.8Z"/><path class="cls-1" d="M5.51,11.82a1.57,1.57,0,1,0,1.57-1.57A1.57,1.57,0,0,0,5.51,11.82Z"/><path class="cls-1" d="M33.52,3.39c-.46-.46-1.21.11-1.67.57L19.14,16.59c-.46.46-2.22,3.4-2.22,3.4s2.94-1.84,3.4-2.31L33,5.05C33.49,4.59,34,3.85,33.52,3.39Z"/><path class="cls-1" d="M9.44,7.89a1.57,1.57,0,0,0,3.14,0h0a1.57,1.57,0,0,0-3.14,0Z"/></g></g></svg>