<?xml version="1.0" encoding="utf-8"?>
<!-- Generator: Adobe Illustrator 21.0.0, SVG Export Plug-In . SVG Version: 6.00 Build 0)  -->
<svg version="1.1" id="图层_1" xmlns="http://www.w3.org/2000/svg" xmlns:xlink="http://www.w3.org/1999/xlink" x="0px" y="0px"
	 viewBox="0 0 30 26" style="enable-background:new 0 0 30 26;" xml:space="preserve">
<style type="text/css">
	.st0{fill:#FFFFFF;}
</style>
<title>未标题-1改01</title>
<g id="图层_2">
	<g id="图层_1-2">
		<path class="st0" d="M15.3,21.6c-1,0-1.9-0.2-2.8-0.5c-0.8-0.3-1.6-0.8-2.3-1.5c-0.6-0.6-1.2-1.4-1.5-2.2C7.9,15.5,8,13.3,9,11.5
			c0.5-1,1.3-1.8,2.2-2.4c0.3-0.2,0.6-0.1,0.8,0.1c0.2,0.2,0.1,0.6-0.1,0.7c0,0,0,0,0,0c-0.8,0.5-1.4,1.2-1.8,2
			c-0.5,0.8-0.7,1.7-0.7,2.7c0,1.6,0.6,3,1.8,4.1c2.4,2.3,6.1,2.3,8.5,0c1.1-1.1,1.8-2.5,1.8-4.1c0-0.9-0.2-1.9-0.7-2.7
			c-0.4-0.8-1.1-1.5-1.8-2c-0.2-0.2-0.3-0.5-0.2-0.7c0,0,0,0,0,0c0.2-0.2,0.5-0.3,0.8-0.1c0.9,0.6,1.6,1.4,2.2,2.4
			c0.5,1,0.8,2.1,0.8,3.2c0,0.9-0.2,1.8-0.6,2.7c-0.4,0.8-0.9,1.6-1.5,2.2c-0.7,0.6-1.4,1.1-2.3,1.5C17.2,21.4,16.2,21.5,15.3,21.6
			L15.3,21.6z M15.4,14.1c-0.3,0-0.6-0.2-0.6-0.5c0,0,0,0,0,0V7.2c0-0.3,0.3-0.6,0.6-0.6c0.3,0,0.6,0.3,0.6,0.6v6.4
			C16,13.9,15.7,14.1,15.4,14.1C15.4,14.1,15.4,14.1,15.4,14.1z"/>
	</g>
</g>
</svg>
