<svg id="图层_1" data-name="图层 1" xmlns="http://www.w3.org/2000/svg" viewBox="0 0 30 26"><defs><style>.cls-1{fill:#fff;}</style></defs><title>未标题-1改01</title><path class="cls-1" d="M14.94,5.14a7.43,7.43,0,1,0,7.43,7.43A7.43,7.43,0,0,0,14.94,5.14Zm0,14.06a6.63,6.63,0,1,1,6.63-6.63A6.63,6.63,0,0,1,14.94,19.2Zm0-10.1a.89.89,0,0,0-.24.62.71.71,0,0,0,.19.5.65.65,0,0,0,.48.2.78.78,0,0,0,.59-.28.89.89,0,0,0,.24-.62A.69.69,0,0,0,16,9a.76.76,0,0,0-1.08.07ZM15.52,14c-.2.19-.34.31-.43.38,0-.25.16-.73.45-1.69a6.11,6.11,0,0,0,.31-1.2.46.46,0,0,0-.16-.36c-.23-.19-.64-.15-1.14.13a3.78,3.78,0,0,0-.9.77l-.17.19.57.44.15-.14.34-.32a12.84,12.84,0,0,0-.64,2.7.62.62,0,0,0,.16.44.56.56,0,0,0,.43.18,1.24,1.24,0,0,0,.59-.2,6.07,6.07,0,0,0,1-.79l.18-.17-.51-.5-.17.15Z"/></svg>