<?xml version="1.0" encoding="utf-8"?>
<!-- Generator: Adobe Illustrator 21.0.0, SVG Export Plug-In . SVG Version: 6.00 Build 0)  -->
<svg version="1.1" id="图层_1" xmlns="http://www.w3.org/2000/svg" xmlns:xlink="http://www.w3.org/1999/xlink" x="0px" y="0px"
	 viewBox="0 0 34 35" style="enable-background:new 0 0 34 35;" xml:space="preserve">
<style type="text/css">
	.st0{fill:#FFFFFF;}
</style>
<title>未标题-1改01</title>
<path class="st0" d="M32.7,7.8H1.4C1,7.8,0.6,7.5,0.6,7V6.6c0-0.5,0.4-0.8,0.8-0.8h31.2c0.5,0,0.8,0.4,0.8,0.8V7
	C33.5,7.5,33.1,7.8,32.7,7.8z"/>
<title>未标题-1改01</title>
<path class="st0" d="M32.7,18.5H1.4c-0.5,0-0.8-0.4-0.8-0.8v-0.4c0-0.5,0.4-0.8,0.8-0.8h31.2c0.5,0,0.8,0.4,0.8,0.8v0.4
	C33.5,18.1,33.1,18.5,32.7,18.5z"/>
<title>未标题-1改01</title>
<path class="st0" d="M32.7,29.1H1.4c-0.5,0-0.8-0.4-0.8-0.8v-0.4c0-0.5,0.4-0.8,0.8-0.8h31.2c0.5,0,0.8,0.4,0.8,0.8v0.4
	C33.5,28.7,33.1,29.1,32.7,29.1z"/>
</svg>
