<svg id="图层_1" data-name="图层 1" xmlns="http://www.w3.org/2000/svg" viewBox="0 0 18.79 23.51"><defs><style>.cls-1{fill:#fff;}</style></defs><title>未标题-2</title><g id="图层_2" data-name="图层 2"><g id="图层_1-2" data-name="图层 1-2"><path class="cls-1" d="M5.05,12.11a.46.46,0,0,1,.6,0,.8.8,0,0,1,0,.76l-2,2.21,1.93,2.09a.72.72,0,0,1,0,.72.49.49,0,0,1-.66,0L2.71,15.35a.42.42,0,0,1,0-.53Z"/><path class="cls-1" d="M13.71,12.11l2.37,2.71a.42.42,0,0,1,0,.53l-2.26,2.57a.47.47,0,0,1-.66,0,.72.72,0,0,1,0-.79l1.94-2.06-2-2.22a.66.66,0,0,1,0-.72.43.43,0,0,1,.61,0h0Z"/><path class="cls-1" d="M10,11.54a.48.48,0,0,1,.58-.23.55.55,0,0,1,.25.58L8.71,18.65a.44.44,0,0,1-.54.2.54.54,0,0,1-.32-.56Z"/><path class="cls-1" d="M14.43,23.51H4.37C2,23.51,0,21.85,0,19.82V3.69C0,1.65,2,0,4.37,0h6.31a4.11,4.11,0,0,1,2.57.88l4.41,3.61a2.91,2.91,0,0,1,1.12,2.25V19.82C18.79,21.85,16.83,23.51,14.43,23.51ZM10.72,1.08H4.37c-1.81,0-3.28,1.17-3.28,2.6V19.82c0,1.41,1.5,2.6,3.28,2.6H14.43c1.81,0,3.28-1.17,3.28-2.6V6.75A1.83,1.83,0,0,0,17,5.34L12.57,1.72A3,3,0,0,0,10.72,1.08Z"/><path class="cls-1" d="M18.18,7.13H12.26a1.73,1.73,0,0,1-1.7-1.72V.54a.36.36,0,1,1,.72,0V5.4a1,1,0,0,0,1,1h5.91a.36.36,0,1,1,0,.72Z"/></g></g></svg>