<svg id="图层_1" data-name="图层 1" xmlns="http://www.w3.org/2000/svg" viewBox="0 0 30 26"><defs><style>.cls-1{fill:#fff;}</style></defs><title>未标题-1改01</title><path class="cls-1" d="M21.36,15.52H16a.22.22,0,0,1-.22-.22v-.52a.22.22,0,0,1,.22-.22h5.37a.22.22,0,0,1,.22.22v.52a.22.22,0,0,1-.22.22Zm0,1.91H16a.22.22,0,0,1-.22-.22v-.52a.22.22,0,0,1,.22-.22h5.37a.22.22,0,0,1,.22.22v.51a.22.22,0,0,1-.22.22Zm0,1.91H16a.22.22,0,0,1-.22-.22V18.6a.22.22,0,0,1,.22-.22h5.37a.22.22,0,0,1,.22.22v.51a.22.22,0,0,1-.22.22ZM14.8,14.48v1a2.79,2.79,0,1,1,2.84-2.79,2.74,2.74,0,0,1-.17,1H16.38a1.78,1.78,0,0,0,.28-1,1.85,1.85,0,1,0-1.85,1.82Zm-.23,3.88a.23.23,0,0,1,.17.07.23.23,0,0,1,.07.16v.51a.23.23,0,0,1-.23.23h-.92a.82.82,0,0,1-.83-.78l-.14-1a5.52,5.52,0,0,1-1.14-.65l-.93.37A.84.84,0,0,1,9.52,17L8.35,15a.81.81,0,0,1,.27-1.1l.79-.6a4.84,4.84,0,0,1,0-1.3l-.79-.6a.81.81,0,0,1-.27-1.09l1.16-2A.84.84,0,0,1,10.61,8l.93.37a5.34,5.34,0,0,1,1.14-.65l.14-1A.82.82,0,0,1,13.64,6H16a.82.82,0,0,1,.83.78l.14,1a5.46,5.46,0,0,1,1.14.65L19,8a.84.84,0,0,1,1.1.32l1.16,2a.81.81,0,0,1-.27,1.1l-.79.6a5,5,0,0,1,0,1.3l.4.3H19.14l0-.18a4.13,4.13,0,0,0,0-1.54l-.05-.29,1.21-.92-1-1.76-1.4.59-.23-.19a4.4,4.4,0,0,0-1.36-.77L16,8.45,15.83,7h-2l-.21,1.49-.28.1a4.47,4.47,0,0,0-1.36.77l-.23.19L10.3,8.94l-1,1.74,1.21.92-.05.29a4.24,4.24,0,0,0-.07.77,4.41,4.41,0,0,0,.07.77l.05.29-1.21.92,1,1.76,1.4-.59.23.19a4.4,4.4,0,0,0,1.36.77l.28.1.21,1.49h.79Z"/></svg>