<svg id="图层_1" data-name="图层 1" xmlns="http://www.w3.org/2000/svg" viewBox="0 0 30 26"><defs><style>.cls-1{fill:#fff;}</style></defs><title>未标题-1改01</title><path class="cls-1" d="M11.44,17.74a.45.45,0,0,0-.26.06c-.53.11-.35.67.26.67h7.72c.35,0,.53-.11.53-.28s-.09-.45-.53-.45Z"/><path class="cls-1" d="M21.16,9.17V19a.41.41,0,0,1-.44.44H10.81a1.41,1.41,0,0,1-1.4-1.49c0-.79.53-1.49,1.14-1.49h9a.57.57,0,0,0,.53-.53V7a.57.57,0,0,0-.53-.53h-8A3.33,3.33,0,0,0,8.27,9.79v8.59a2.42,2.42,0,0,0,2.28,2.1H20.72a1.57,1.57,0,0,0,1.58-1.58V9.17A.57.57,0,1,0,21.16,9.17ZM9.41,9.79A2.17,2.17,0,0,1,11.6,7.59h7.45v7.8H10.55a1.62,1.62,0,0,0-1.14.35Z"/></svg>