<svg xmlns="http://www.w3.org/2000/svg" viewBox="0 0 31.87 31.25"><defs><style>.cls-1{fill:#fff;}</style></defs><title>资源 5</title><g id="图层_2" data-name="图层 2"><g id="图层_1-2" data-name="图层 1"><path class="cls-1" d="M12.93,31.25h-9a1,1,0,0,1-1-1V16.75a1,1,0,0,1,2,0v12.5h7v-6.5a1,1,0,0,1,1-1h3a1,1,0,1,1,0,2h-2v6.5A1,1,0,0,1,12.93,31.25Z"/><path class="cls-1" d="M27.93,31.25h-9a1,1,0,0,1-1-1v-6.5h-2a1,1,0,0,1,0-2h3a1,1,0,0,1,1,1v6.5h7V16.75a1,1,0,0,1,2,0v13.5A1,1,0,0,1,27.93,31.25Z"/><path class="cls-1" d="M30.87,16a1,1,0,0,1-.68-.27L15.93,2.37,1.68,15.73A1,1,0,1,1,.32,14.27L15.25.27a1,1,0,0,1,1.37,0l14.93,14A1,1,0,0,1,30.87,16Z"/><path class="cls-1" d="M28.68,8a1,1,0,0,1-1-1V2h-6a1,1,0,0,1,0-2h7a1,1,0,0,1,1,1V7A1,1,0,0,1,28.68,8Z"/></g></g></svg>