<svg xmlns="http://www.w3.org/2000/svg" viewBox="0 0 40.1 40.1"><defs><style>.cls-1{fill:#898989;}</style></defs><title>实时控制</title><g id="图层_2" data-name="图层 2"><g id="图层_1-2" data-name="图层 1"><path class="cls-1" d="M27.14,19.53a9.37,9.37,0,0,1-9-12,9.36,9.36,0,1,1,9,12Zm0-17.21a7.84,7.84,0,1,0,2.2.32A7.77,7.77,0,0,0,27.14,2.32ZM35.4,12.56h0Zm3.15,26.76h-37a.77.77,0,0,1,0-1.54h37a.77.77,0,0,1,0,1.54Z"/><path class="cls-1" d="M38.55,40.1h-37a1.55,1.55,0,0,1,0-3.09h37a1.55,1.55,0,0,1,0,3.09Zm0-1.55h0ZM27.14,20.3a10.15,10.15,0,0,1-9.73-13A10.14,10.14,0,1,1,36.88,13,10.2,10.2,0,0,1,27.14,20.3Zm0-17.21a7.06,7.06,0,1,0,2,.29A7,7,0,0,0,27.14,3.09Z"/><path class="cls-1" d="M33.48,39.32H6.61a.77.77,0,0,1-.77-.77,6.15,6.15,0,0,1,6.26-6.17H28a6.16,6.16,0,0,1,6.29,6.17A.77.77,0,0,1,33.48,39.32Zm-26-1.54H32.65A4.65,4.65,0,0,0,28,33.92H12.1A4.64,4.64,0,0,0,7.44,37.78Z"/><path class="cls-1" d="M33.49,40.1H6.61a1.55,1.55,0,0,1-1.55-1.55,6.92,6.92,0,0,1,7-6.95H28A6.93,6.93,0,0,1,35,38.55,1.55,1.55,0,0,1,33.49,40.1ZM8.47,37H31.62A4,4,0,0,0,28,34.69H12.1A3.93,3.93,0,0,0,8.47,37Zm21.37-3.54a5.45,5.45,0,0,1,2.87,2.29A5.39,5.39,0,0,0,29.84,33.46Zm-19.66,0a5.38,5.38,0,0,0-2.55,1.9A5.45,5.45,0,0,1,10.18,33.48Z"/><rect class="cls-1" x="9.05" y="23.82" width="18.83" height="2.51" transform="translate(-11.2 34.56) rotate(-71.37)"/><rect class="cls-1" x="18.42" y="24.9" width="16.74" height="2.51" transform="translate(-6.47 43.36) rotate(-71.67)"/></g></g></svg>