<svg id="图层_1" data-name="图层 1" xmlns="http://www.w3.org/2000/svg" viewBox="0 0 43.06 43.17"><defs><style>.cls-1{fill:#727171;}</style></defs><title>0</title><path class="cls-1" d="M37.68,43.06H5.38A5.39,5.39,0,0,1,0,37.68V5.38A5.39,5.39,0,0,1,5.38,0h32.3a5.39,5.39,0,0,1,5.38,5.38v32.3a5.38,5.38,0,0,1-5.38,5.38ZM32.3,2.69H10.77V14.8a1.35,1.35,0,0,0,1.35,1.35H30.95A1.35,1.35,0,0,0,32.3,14.8V2.69Zm8.07,2.69a2.69,2.69,0,0,0-2.69-2.69H35V16.15a2.69,2.69,0,0,1-2.69,2.69H10.77a2.69,2.69,0,0,1-2.69-2.69V2.69H5.38A2.69,2.69,0,0,0,2.69,5.38v32.3a2.69,2.69,0,0,0,2.69,2.69h32.3a2.69,2.69,0,0,0,2.69-2.69Zm-14.8,8.08a1.35,1.35,0,0,1-1.35-1.35V6.73a1.35,1.35,0,0,1,2.69,0v5.38A1.35,1.35,0,0,1,25.57,13.46Z"/></svg>