<svg id="图层_1" data-name="图层 1" xmlns="http://www.w3.org/2000/svg" viewBox="0 0 43.06 43.17"><defs><style>.cls-1{fill:#727171;}</style></defs><title>0</title><rect class="cls-1" x="11.89" y="4.93" width="31.17" height="4.67" rx="2.33" ry="2.33"/><rect class="cls-1" x="11.89" y="19.53" width="31.17" height="4.67" rx="2.33" ry="2.33"/><rect class="cls-1" x="11.89" y="35.12" width="31.17" height="4.67" rx="2.33" ry="2.33"/><path class="cls-1" d="M.46,7.25a3.64,3.64,0,0,0,7.28,0h0a3.64,3.64,0,1,0-7.28,0Z"/><path class="cls-1" d="M.46,22.84a3.64,3.64,0,1,0,7.28,0h0a3.64,3.64,0,1,0-7.28,0Z"/><path class="cls-1" d="M.46,37.46a3.64,3.64,0,1,0,7.28,0h0a3.64,3.64,0,0,0-7.28,0Z"/></svg>