<svg id="图层_1" data-name="图层 1" xmlns="http://www.w3.org/2000/svg" viewBox="0 0 43.06 43.17"><defs><style>.cls-1{fill:#727171;}</style></defs><title>0</title><path class="cls-1" d="M26.31,0H8.61A2.55,2.55,0,0,0,6.08,2.53v38A2.55,2.55,0,0,0,8.61,43H36.42A2.57,2.57,0,0,0,39,40.49V12.65H36.45V39.23a1.76,1.76,0,0,1-1.27,1.27H9.88a1.76,1.76,0,0,1-1.27-1.27V3.8A1.76,1.76,0,0,1,9.88,2.53H26.33ZM25.06,0V12.65a1.7,1.7,0,0,0,1.27,1.27H39V12.65L26.33,0Zm2.53,11.39V3.8l7.59,7.59ZM13.67,25.31H31.39v2.53H13.67ZM23.8,17.72V35.43H21.27V17.72Z"/></svg>