<?xml version="1.0" encoding="UTF-8" standalone="no"?>
<svg width="32px" height="32px" viewBox="0 0 32 32" version="1.1" xmlns="http://www.w3.org/2000/svg" xmlns:xlink="http://www.w3.org/1999/xlink">
    <!-- Generator: Sketch 48.2 (47327) - http://www.bohemiancoding.com/sketch -->
    <title>icon_back</title>
    <desc>Created with Sketch.</desc>
    <defs>
        <path d="M6.86592518,7.86589417 L18.0829494,7.86589417 C23.697449,7.86589417 29,12.3886421 29,18.0031143 C29,23.3551501 24.8901576,27.7151618 19.6425555,28.1110669 L19.6425555,28.1403892 L10.2850836,28.1403892 L10.2850836,26.5807832 L18.8627525,26.5807832 C23.5414884,26.5807832 27.4404488,22.6818502 27.4404488,18.0031143 C27.4404488,13.3243783 22.7616854,9.4254454 18.0829494,9.4254454 L7.04117293,9.4254454 L10.6172915,13.0015462 L9.51309367,14.1041539 L4,8.58952506 L4.04684651,8.54267972 L4.01565363,8.51153105 L9.52866506,3 L10.6328629,4.10107256 L6.86592518,7.86589417 Z" id="path-1"></path>
    </defs>
    <g id="xstudio_editorhome_v1.0" stroke="none" stroke-width="1" fill="none" fill-rule="evenodd" transform="translate(-38.000000, -68.000000)">
        <g id="btn_back" transform="translate(38.000000, 68.000000)" fill-rule="nonzero">
            <g id="icon_back">
                <use fill="#444444" fill-rule="evenodd" xlink:href="#path-1"></use>
                <path stroke="#444444" stroke-width="1" d="M4.67593289,8.55844094 L4.35360261,8.23602089 L4.04682615,8.54271195 L4.36915954,8.86513191 L4.67593289,8.55844094 Z M8.07351175,7.36589417 L18.0829494,7.36589417 C24.1122695,7.36589417 29.5,12.2355549 29.5,18.0031143 C29.5,23.4329439 25.4525775,27.9332751 20.1425555,28.5647483 L20.1425555,28.6403892 L9.7850836,28.6403892 L9.7850836,26.0807832 L18.8627525,26.0807832 C23.2653517,26.0807832 26.9404488,22.4057022 26.9404488,18.0031143 C26.9404488,13.7444684 22.6440216,9.9254454 18.0829494,9.9254454 L8.24828395,9.9254454 L11.324654,13.0018001 L9.5127898,14.8110552 L3.29293804,8.58947145 L3.33948453,8.54292612 L3.30824851,8.51173437 L9.52821184,2.29344125 L11.3405707,4.10067051 L8.07351175,7.36589417 Z"></path>
            </g>
        </g>
    </g>
</svg>