<svg xmlns="http://www.w3.org/2000/svg" viewBox="0 0 739.89 97.03"><defs><style>.cls-1{fill:#cf6e46;}</style></defs><title>资源 1</title><g id="图层_2" data-name="图层 2"><g id="图层_1-2" data-name="图层 1"><path class="cls-1" d="M19.76,59.09l-18.52-34H16.82l7,14.44c1.61,3.33,3.13,6.75,5.22,11.12h.47c1.71-4.37,3.14-7.79,4.66-11.12l6.65-14.44H55.67L37.15,59.75,56.91,95.38H41.33L33.44,79.8c-1.8-3.61-3.42-7.32-5.51-11.59h-.38c-1.81,4.27-3.42,8-5.13,11.59l-7.5,15.58H0Z"/><path class="cls-1" d="M114.56,73H86.3L80.18,95.38H62.51L90.42,8.24h20.49l28,87.14H120.68Zm-3.77-13.54-2.59-9.54c-2.71-9.07-5.06-19.08-7.65-28.5h-.47c-2.24,9.54-4.83,19.43-7.42,28.5l-2.59,9.54Z"/><path class="cls-1" d="M191.28,95.38l-14.44-26.6h-9.79v26.6H153V25.08H177.5c14.73,0,26.41,5.13,26.41,21.28,0,10.54-5.32,17.1-13.39,20.24L207,95.38ZM167.05,57.66h9.12c9,0,14-3.8,14-11.31s-4.94-10.17-14-10.17h-9.12Z"/><path class="cls-1" d="M222.53,25.08h15.58l12,32.87c1.52,4.37,2.85,9,4.28,13.59h.47c1.52-4.56,2.75-9.22,4.28-13.59l11.68-32.87h15.58v70.3H273.55V66c0-6.65,1-16.44,1.71-23.08h-.38l-5.7,16.53L258.35,89h-8.08L239.34,59.47l-5.6-16.53h-.38c.67,6.65,1.8,16.44,1.8,23.08V95.38H222.53Z"/><path class="cls-1" d="M337.32,84.31l10-12c6.24,5.77,14.48,9.66,22.14,9.66,9.07,0,13.89-3.89,13.89-10,0-6.48-5.3-8.48-13.07-11.78l-11.66-4.95C349.81,51.58,341,44.51,341,31.79c0-14.25,12.48-25.2,30.14-25.2a38.67,38.67,0,0,1,27.32,11.19l-8.83,11c-5.53-4.59-11.3-7.18-18.49-7.18-7.65,0-12.6,3.42-12.6,9.18,0,6.24,6.24,8.48,13.66,11.42L383.6,47c10.6,4.36,17.55,11.07,17.55,23.67,0,14.25-11.89,26.38-32,26.38A46.43,46.43,0,0,1,337.32,84.31Z"/><path class="cls-1" d="M423.51,72.3V43.1h-9.3V30.26l10.13-.82,2-17.66h14.48V29.44h16.25V43.1H440.82V72.3c0,7.54,3.06,11.07,8.95,11.07A19.27,19.27,0,0,0,456.25,82l2.83,12.6A42.61,42.61,0,0,1,445.18,97C429.52,97,423.51,87.14,423.51,72.3Z"/><path class="cls-1" d="M475.67,70.65V29.44H493v39c0,10.24,2.83,13.78,9.18,13.78,5.42,0,8.95-2.35,13.42-8.24V29.44H532.9V95.38H518.77L517.47,86H517C511.35,92.67,505,97,495.93,97,481.8,97,475.67,87.14,475.67,70.65Z"/><path class="cls-1" d="M553.5,62.53c0-21.55,13.42-34.74,27.67-34.74,7.42,0,12,2.83,16.72,7.18l-.71-10.36V1.41H614.5v94h-14l-1.41-6.83h-.35C593.89,93.26,587.3,97,580.47,97,564.1,97,553.5,84.08,553.5,62.53ZM597.19,76V47A17.52,17.52,0,0,0,584.94,42c-7.42,0-13.66,7.07-13.66,20.25,0,13.66,4.95,20.49,13.66,20.49C589.53,82.78,593.42,80.9,597.19,76Z"/><path class="cls-1" d="M637.34,9.42c0-5.65,4.36-9.42,10.36-9.42s10.25,3.77,10.25,9.42c0,5.42-4.36,9.42-10.25,9.42S637.34,14.84,637.34,9.42Zm1.65,20h17.19V95.38H639Z"/><path class="cls-1" d="M676.54,62.53c0-22,15.19-34.74,31.68-34.74s31.67,12.72,31.67,34.74c0,21.78-15.19,34.5-31.67,34.5S676.54,84.31,676.54,62.53Zm45.69,0c0-12.48-5.06-20.61-14-20.61s-14,8.13-14,20.61,5.06,20.37,14,20.37S722.23,74.89,722.23,62.53Z"/></g></g></svg>