<?xml version="1.0" encoding="UTF-8" standalone="no"?>
<svg width="19px" height="16px" viewBox="0 0 19 16" version="1.1" xmlns="http://www.w3.org/2000/svg" xmlns:xlink="http://www.w3.org/1999/xlink">
    <!-- Generator: Sketch 49.3 (51167) - http://www.bohemiancoding.com/sketch -->
    <title>icon_search_active</title>
    <desc>Created with Sketch.</desc>
    <defs></defs>
    <g id="Page-1" stroke="none" stroke-width="1" fill="none" fill-rule="evenodd">
        <g id="output_icons" transform="translate(-279.000000, -22.000000)" fill="#555555">
            <g id="icon_search_active" transform="translate(277.000000, 20.000000)">
                <path d="M14.937951,15.7018525 L17.2676704,19.7370448 L15.3954253,20.817986 L12.9850957,16.6431726 C12.3176593,16.847696 11.6093372,16.9576982 10.8755023,16.9576982 C6.87900377,16.9576982 3.63920162,13.6950986 3.63920162,9.67047794 C3.63920162,5.64585732 6.87900377,2.38325768 10.8755023,2.38325768 C14.8720008,2.38325768 18.1118029,5.64585732 18.1118029,9.67047794 C18.1118029,12.1786434 16.8535123,14.3908513 14.937951,15.7018525 Z M10.8439027,14.4513082 C13.4832846,14.4513082 15.6229263,12.2966104 15.6229263,9.63865602 C15.6229263,6.98070164 13.4832846,4.82600388 10.8439027,4.82600388 C8.20452083,4.82600388 6.06487908,6.98070164 6.06487908,9.63865602 C6.06487908,12.2966104 8.20452083,14.4513082 10.8439027,14.4513082 Z" transform="translate(10.875502, 11.600622) rotate(-30.000000) translate(-10.875502, -11.600622) "></path>
            </g>
        </g>
    </g>
</svg>