<svg xmlns="http://www.w3.org/2000/svg" viewBox="0 0 13 13.54"><defs><style>.cls-1{fill:#53b0bd;}.cls-2{fill:#c1dcc8;}.cls-3{fill:#b4dadf;}.cls-4{fill:#dec444;}.cls-5{fill:#f1e4ab;}</style></defs><title>设置</title><g id="图层_2" data-name="图层 2"><g id="瓜糷_1" data-name="瓜糷 1"><path class="cls-1" d="M7.71,6.45l-.62-.62A1.18,1.18,0,0,0,5.44,6l-5,5a1.18,1.18,0,0,0-.16,1.65l.62.62a1.18,1.18,0,0,0,1.65-.16l5-5A1.18,1.18,0,0,0,7.71,6.45Zm-6.58,6a.64.64,0,1,1,.9,0A.64.64,0,0,1,1.13,12.42Z"/><path class="cls-2" d="M12.21,7.11a2.68,2.68,0,0,0,0-3.79l-1.9,1.88-.91.9L11.3,8Z"/><path class="cls-1" d="M12.24,7.29a4,4,0,0,1-6.06.06A4,4,0,0,1,6,1.59C7.61-.07,9.68-.68,11.34,1L8.63,3.68Z"/><path class="cls-3" d="M3.51,11.18a.65.65,0,0,1-.91.09l-.34-.34a.65.65,0,0,1,.09-.9L5.11,7.27A.65.65,0,0,1,6,7.18l.34.34a.65.65,0,0,1-.09.91Z"/><rect class="cls-4" x="6.55" y="5.05" width="1.3" height="2.58" rx="0.33" ry="0.33" transform="translate(-2.38 6.95) rotate(-45.02)"/><rect class="cls-5" x="6.17" y="5.73" width="1.29" height="0.47" transform="translate(-2.22 6.57) rotate(-45.01)"/><rect class="cls-5" x="6.93" y="6.49" width="1.29" height="0.47" transform="translate(-2.53 7.32) rotate(-45)"/></g></g></svg>