<svg xmlns="http://www.w3.org/2000/svg" viewBox="0 0 40 40"><defs><style>.cls-1,.cls-12{fill:none;}.cls-2{fill:#f0d13a;}.cls-3{opacity:0.1;}.cls-3,.cls-6{isolation:isolate;}.cls-4{fill:#fcdd5d;}.cls-5{fill:#71cc8c;}.cls-6{fill:#fff;opacity:0.6;}.cls-7{fill:#5bab73;}.cls-8{fill:#50c5d4;}.cls-9{fill:#3e9fad;}.cls-10{fill:#e37d7d;}.cls-11{fill:#cd5e5e;}.cls-12{stroke:#fff;}</style></defs><title>blk</title><g id="图层_2" data-name="图层 2"><g id="图层_1-2" data-name="图层 1"><g id="Page-1"><g id="us首页"><g id="Group"><g id="Group-3-Copy-2"><g id="Group-7"><rect id="Rectangle-10" class="cls-1" width="40" height="40"/><path id="Combined-Shape" class="cls-2" d="M19.29,33.09h5.38v2.77H9.1l0-15.47h1.56l1,1,1-1,23.85,0v5.16l-22.29,0,0,7.54h2.36L18,34.4Z"/><ellipse id="Oval" class="cls-3" cx="11.7" cy="23.45" rx="1.04" ry="1.03"/><polygon id="Triangle-5-Copy" class="cls-4" points="16.3 25.07 19.42 25.07 17.86 26.62 16.3 25.07"/><g id="Group-6"><path id="Combined-Shape-2" data-name="Combined-Shape" class="cls-5" d="M12.76,11.22H27.4V4H9.22v7.22h1.45l1,1Z"/><rect id="Rectangle-14" class="cls-6" x="14.95" y="5.43" width="10.39" height="4.3" rx="1" ry="1"/><ellipse id="Oval-2" data-name="Oval" class="cls-7" cx="11.69" cy="7.42" rx="1.04" ry="1.03"/></g><g id="Group-8"><path id="Combined-Shape-3" data-name="Combined-Shape" class="cls-8" d="M16.92,26.64H15.36v5.68H30.72V26.64H19l-1,1.14Z"/><rect id="Rectangle-14-Copy-3" class="cls-6" x="21.47" y="27.92" width="8.15" height="3.1"/><polygon id="Triangle-5-Copy-2" class="cls-8" points="16.4 31.79 19.52 31.79 17.96 33.34 16.4 31.79"/><ellipse id="Oval-Copy" class="cls-9" cx="17.96" cy="29.73" rx="1.04" ry="1.03"/></g><g id="Group-8-Copy"><path id="Combined-Shape-4" data-name="Combined-Shape" class="cls-10" d="M6,19.52l-1.55.11L4,14l1.55-.11,1.12,1.06,1-1.2,16.74-1.17.4,5.66L8,19.37l-1,1.1Z"/><rect id="Rectangle-14-Copy-3-2" data-name="Rectangle-14-Copy-3" class="cls-6" x="12.96" y="14.27" width="10.39" height="3.1" transform="translate(-1.06 1.3) rotate(-4)"/><ellipse id="Oval-Copy-2" data-name="Oval-Copy" class="cls-11" cx="6.81" cy="16.87" rx="1.04" ry="1.03" transform="translate(-1.16 0.52) rotate(-4)"/></g><rect id="Rectangle-14-Copy" class="cls-6" x="23.82" y="21.48" width="10.39" height="3.1"/><rect id="Rectangle-14-Copy-2" class="cls-6" x="14.42" y="21.48" width="7.22" height="3.1"/><path id="Combined-Shape-5" data-name="Combined-Shape" class="cls-12" d="M9.38,20l1.36-.78L7.12,17.32l-.18,4.07,1.36-.78,1.33,2.3,1.09-.63Z"/><path id="Combined-Shape-6" data-name="Combined-Shape" d="M9.38,20l1.36-.78L7.12,17.32l-.18,4.07,1.36-.78,1.33,2.3,1.09-.63Z"/></g></g></g></g></g></g></g></svg>