<svg xmlns="http://www.w3.org/2000/svg" viewBox="0 0 13.54 13.54"><defs><style>.cls-1{fill:#dec444;}.cls-2{fill:#d07676;}.cls-3{fill:#bc5959;}.cls-4{fill:#ebc7c7;}</style></defs><title>关机</title><g id="图层_2" data-name="图层 2"><g id="瓜糷_1" data-name="瓜糷 1"><circle class="cls-1" cx="6.77" cy="6.77" r="6.77"/><circle class="cls-2" cx="6.77" cy="6.77" r="5.73"/><path class="cls-3" d="M7.57,4.34A.62.62,0,0,1,6.95,5h0a.62.62,0,0,1-.62-.62V2.79a.62.62,0,0,1,.62-.62h0a.62.62,0,0,1,.62.62Z"/><path class="cls-4" d="M8.49,3.62l-.3-.15V4.69A2.45,2.45,0,1,1,5.7,4.48V3.34l-.24.09a3.52,3.52,0,1,0,3,.2Z"/></g></g></svg>