<?xml version="1.0" encoding="UTF-8" standalone="no"?>
<svg width="68px" height="68px" viewBox="0 0 68 68" version="1.1" xmlns="http://www.w3.org/2000/svg" xmlns:xlink="http://www.w3.org/1999/xlink">
    <!-- Generator: Sketch 49.3 (51167) - http://www.bohemiancoding.com/sketch -->
    <title>shopping bag-alt</title>
    <desc>Created with Sketch.</desc>
    <defs></defs>
    <g id="Page-1" stroke="none" stroke-width="1" fill="none" fill-rule="evenodd">
        <g id="output_icons" transform="translate(-139.000000, -182.000000)" fill="#444444">
            <g id="btom_icons" transform="translate(124.000000, 174.000000)">
                <g id="shopping-bag-alt" transform="translate(15.000000, 8.000000)">
                    <g transform="translate(10.000000, 9.000000)">
                        <path d="M44.7324276,50 L2.26757242,50 C1.16300292,50 0.267572421,49.1045695 0.267572421,48 C0.267572421,47.9164834 0.272803687,47.8330487 0.283235493,47.7501862 L4.81537835,11.7501862 C4.94128162,10.7501034 5.79173854,10 6.79971528,10 L11.9161786,10 C12.737,4.35333335 17.5863928,0 23.5,0 C29.4136071,0 34.2579642,4.35333335 35.0787857,10 L40.2002847,10 C41.2082614,10 42.0587183,10.7501034 42.1846216,11.7501862 L46.7167645,47.7501862 C46.8547329,48.8461052 46.0781604,49.8463685 44.9822414,49.9843369 C44.8993789,49.9947687 44.8159442,50 44.7324276,50 Z M23.5,3.33333335 C19.4428929,3.33333335 16.0941429,6.2016667 15.3119286,10 L31.68975,10 C30.9058571,6.20166665 27.5554286,3.33333335 23.5,3.33333335 Z M7.69289288,13.3333333 L3.35714287,46.6666667 L43.6428572,46.6666667 L39.4464286,13.3333333 L7.69289288,13.3333333 Z" id="Shape" stroke="#444444" fill-rule="nonzero"></path>
                        <path d="M18.2692308,33.3333333 C15.9381111,33.3333333 14.0512821,31.4666667 14.0512821,29.1638889 C14.0512821,26.8638889 15.9381111,25 18.2692308,25 C20.6003504,25 22.4871795,26.8638889 22.4871795,29.1638889 C22.4871795,31.4694445 20.5975385,33.3333333 18.2692308,33.3333333 Z" id="Path"></path>
                        <polygon id="Triangle" points="23.3666911 28.4861462 25.7398712 20.2020791 31.937003 27.5875332"></polygon>
                        <polygon id="Rectangle-3" points="24.5405542 28.9671273 31.3352547 31.4401961 28.4850868 39.2709679 21.6903863 36.7978992"></polygon>
                    </g>
                </g>
            </g>
        </g>
    </g>
</svg>