<svg id="图层_1" data-name="图层 1" xmlns="http://www.w3.org/2000/svg" viewBox="0 0 282.06 56.88"><defs><style>.cls-1{fill:#e27347;}</style></defs><title>未标题-1改01</title><path class="cls-1" d="M8.69,11.35,22.83,29.44,36.9,11.37h7.36L27.08,34,44.78,56.87H37.3L22.41,38.14,7.53,56.86,0,56.87,18.42,34,1.17,11.38Z"/><path class="cls-1" d="M81,0l29,56.87h-8.4L94,42.39H62.39l-7.6,14.49H46.47L75.6,0Zm9.66,35.56L78.19,10.83,65.8,35.56Z"/><path class="cls-1" d="M157,56.86h-8.41L130.33,38.39h-10V56.87h-6.12V11.38h31.91q5.85,0,7.8,3.11,1.49,2.4,1.5,8.55v7.25a7.39,7.39,0,0,1-2.21,5.77q-2.67,2.33-9.69,2.33h-4.81Zm-13.38-40H120.37V32.92h23.82q3.12,0,4.43-1.36a5.55,5.55,0,0,0,.91-3.63v-4q0-4.47-.65-5.57Q147.89,16.84,143.64,16.84Z"/><path class="cls-1" d="M167.49,11.38,187,41.71l19.59-30.33h5.6v45.5H206V23L186.9,52.35,168,22.91v34H161.9V11.38Z"/><path class="cls-1" d="M282,11.38V18L260,56.87h-6.71l22.33-40H246V27.26l-5.86-1.17V11.38Z"/></svg>