<?xml version="1.0" encoding="UTF-8" standalone="no"?>
<svg width="48px" height="48px" viewBox="0 0 48 48" version="1.1" xmlns="http://www.w3.org/2000/svg" xmlns:xlink="http://www.w3.org/1999/xlink">
    <!-- Generator: Sketch 48.2 (47327) - http://www.bohemiancoding.com/sketch -->
    <title>icon_developers</title>
    <desc>Created with Sketch.</desc>
    <defs></defs>
    <g id="xstudio_editorhome_v1.0" stroke="none" stroke-width="1" fill="none" fill-rule="evenodd" transform="translate(-325.000000, -60.000000)">
        <g id="icon_developers" transform="translate(325.000000, 60.000000)" fill="#444444">
            <g transform="translate(1.000000, 6.000000)">
                <path d="M42.7556919,3.89663944 L42.7556919,32.450395 L3.24430809,32.450395 L3.24430809,3.89663944 L42.7556919,3.89663944 Z M0.5,0 L0.5,1.63636364 L0.5,34.3636364 L0.5,36 L2.54545455,36 L43.4545455,36 L45.5,36 L45.5,34.3636364 L45.5,1.63636364 L45.5,0 L43.4545455,0 L2.54545455,0 L0.5,0 Z" id="Rectangle-28" fill-rule="nonzero"></path>
                <polygon id="Rectangle-29" points="1.46968574 12 1.46968574 8 44.0559182 8 44.0559182 12"></polygon>
                <g id="arrows" transform="translate(8.000000, 16.000000)">
                    <path d="M8.94074253,3.26620646 L2.94342093,3.26620646 L2.94342093,9.36358918 L1.67952257,9.36358918 L1.67952257,2.01160096 L8.94074253,2.01160096 L8.94074253,3.26620646 Z" id="Combined-Shape" transform="translate(5.310133, 5.687595) rotate(-45.000000) translate(-5.310133, -5.687595) "></path>
                    <path d="M26.8756778,3.26620646 L20.8783562,3.26620646 L20.8783562,9.36358918 L19.6144579,9.36358918 L19.6144579,2.01160096 L26.8756778,2.01160096 L26.8756778,3.26620646 Z" id="Combined-Shape" transform="translate(23.245068, 5.687595) scale(-1, 1) rotate(-45.000000) translate(-23.245068, -5.687595) "></path>
                    <rect id="Rectangle-29" transform="translate(14.414240, 6.255768) rotate(-330.000000) translate(-14.414240, -6.255768) " x="13.7323013" y="0.253023794" width="1.36387811" height="12.0054878"></rect>
                </g>
            </g>
        </g>
    </g>
</svg>