<?xml version="1.0" encoding="UTF-8" standalone="no"?>
<svg width="12px" height="12px" viewBox="0 0 12 12" version="1.1" xmlns="http://www.w3.org/2000/svg" xmlns:xlink="http://www.w3.org/1999/xlink">
    <!-- Generator: Sketch 49.1 (51147) - http://www.bohemiancoding.com/sketch -->
    <title>icon_project_white</title>
    <desc>Created with Sketch.</desc>
    <defs></defs>
    <g id="Page-1" stroke="none" stroke-width="1" fill="none" fill-rule="evenodd">
        <g id="xblockly弹窗切图专用" transform="translate(-849.000000, -53.000000)" fill="#FFFFFF" fill-rule="nonzero">
            <g id="icon_project_white" transform="translate(849.000000, 53.000000)">
                <path d="M4.25625,2 L10.3125,2 L10.3125,3.1875 L4.25625,3.1875 L4.25625,2 Z M3.1875,9.3625 L2,9.3625 L2,8.175 L3.1875,8.175 L3.1875,9.3625 Z M3.1875,6.275 L2,6.275 L2,5.0875 L3.1875,5.0875 L3.1875,6.275 Z M3.1875,3.1875 L2,3.1875 L2,2 L3.1875,2 L3.1875,3.1875 Z M10.3125,9.3625 L4.25625,9.3625 L4.25625,8.175 L10.3125,8.175 L10.3125,9.3625 Z M10.3125,6.275 L4.25625,6.275 L4.25625,5.0875 L10.3125,5.0875 L10.3125,6.275 Z"></path>
            </g>
        </g>
    </g>
</svg>