<?xml version="1.0" encoding="UTF-8" standalone="no"?>
<svg width="12px" height="12px" viewBox="0 0 12 12" version="1.1" xmlns="http://www.w3.org/2000/svg" xmlns:xlink="http://www.w3.org/1999/xlink">
    <!-- Generator: Sketch 49.1 (51147) - http://www.bohemiancoding.com/sketch -->
    <title>icon_singlepoint_dark</title>
    <desc>Created with Sketch.</desc>
    <defs></defs>
    <g id="Page-1" stroke="none" stroke-width="1" fill="none" fill-rule="evenodd">
        <g id="xblockly弹窗切图专用" transform="translate(-888.000000, -33.000000)" fill="#444444" fill-rule="nonzero">
            <g id="icon_singlepoint_dark" transform="translate(888.000000, 33.000000)">
                <path d="M11.4426366,5.85781991 C10.6873471,5.09952607 9.47888382,5.09952607 8.72359428,5.85781991 C8.3459495,6.23696682 8.11936264,6.69194313 8.11936264,7.22274882 C8.11936264,7.60189573 8.19489159,7.98104265 8.42147846,8.28436019 L6.0045519,10.7867299 C5.40032027,11.3933649 4.41844385,11.3933649 3.88974117,10.7867299 C3.58762535,10.4834123 3.43656744,10.1042654 3.43656744,9.72511848 C3.43656744,9.34597156 3.58762535,8.96682464 3.88974117,8.66350711 L8.64806532,3.88625592 C9.55441278,2.97630332 9.55441278,1.53554502 8.64806532,0.625592417 C7.81724682,-0.208530806 6.30666772,-0.208530806 5.40032027,0.625592417 L2.98339371,3.0521327 C2.22810417,2.52132701 1.1706988,2.5971564 0.566467161,3.27962085 C-0.188822387,4.03791469 -0.188822387,5.25118483 0.566467161,6.00947867 C0.944111935,6.38862559 1.39728566,6.61611374 1.92598835,6.61611374 C2.45469103,6.61611374 2.90786476,6.38862559 3.28550953,6.00947867 C3.96527013,5.32701422 4.04079908,4.34123223 3.5120964,3.58293839 L5.85349399,1.23222749 C6.45772563,0.625592417 7.43960205,0.625592417 7.96830473,1.23222749 C8.57253637,1.83886256 8.57253637,2.82464455 7.96830473,3.35545024 L3.20998058,8.13270142 C2.75680685,8.58767773 2.53021998,9.11848341 2.53021998,9.72511848 C2.53021998,10.3317536 2.75680685,10.9383886 3.20998058,11.3175355 C3.66315431,11.7725118 4.19185699,12 4.79608863,12 C5.40032027,12 6.0045519,11.7725118 6.38219668,11.3175355 L8.95018114,8.81516588 C9.25229696,9.04265403 9.62994173,9.11848341 10.0075865,9.11848341 C10.5362892,9.11848341 10.9894629,8.89099526 11.3671077,8.58767773 C12.1979262,7.82938389 12.1979262,6.61611374 11.4426366,5.85781991 Z"></path>
            </g>
        </g>
    </g>
</svg>