<?xml version="1.0" encoding="UTF-8" standalone="no"?>
<svg width="12px" height="12px" viewBox="0 0 12 12" version="1.1" xmlns="http://www.w3.org/2000/svg" xmlns:xlink="http://www.w3.org/1999/xlink">
    <!-- Generator: Sketch 49.1 (51147) - http://www.bohemiancoding.com/sketch -->
    <title>icon_suctioncup_dark</title>
    <desc>Created with Sketch.</desc>
    <defs></defs>
    <g id="Page-1" stroke="none" stroke-width="1" fill="none" fill-rule="evenodd">
        <g id="xblockly弹窗切图专用" transform="translate(-703.000000, -33.000000)" fill="#3C3C3C">
            <g id="icon_suctioncup_dark" transform="translate(703.000000, 33.000000)">
                <path d="M3.49676599,5.3193093 L1.64382482,5.3193093 L1.64382482,2.41608349 L3.49676599,2.41608349 L3.49676599,1.54511575 L8.79088364,1.54511575 L8.79088364,2.41608349 L10.6438248,2.41608349 L10.6438248,5.3193093 L8.79088364,5.3193093 L8.79088364,6.7709222 L9.05558952,6.7709222 L9.84092335,7.36696291 C10.3520844,7.75491613 10.3169506,8.33848156 9.77124052,8.66513087 L9.17996576,9.01905414 L10.0305519,9.91623706 C10.3598334,10.2635572 10.2415497,10.5451157 9.75083435,10.5451157 L2.53760722,10.5451157 C2.05384203,10.5451157 1.93437873,10.2574705 2.25788964,9.91623706 L3.11189115,9.01545169 L2.62697407,8.70049233 C2.09036374,8.35195759 2.05322437,7.74174996 2.5542449,7.32913553 L3.23206011,6.7709222 L3.49676599,6.7709222 L3.49676599,5.3193093 Z"></path>
            </g>
        </g>
    </g>
</svg>