<?xml version="1.0" encoding="UTF-8" standalone="no"?>
<svg width="12px" height="12px" viewBox="0 0 12 12" version="1.1" xmlns="http://www.w3.org/2000/svg" xmlns:xlink="http://www.w3.org/1999/xlink">
    <!-- Generator: Sketch 49.1 (51147) - http://www.bohemiancoding.com/sketch -->
    <title>icon_suctioncup_white</title>
    <desc>Created with Sketch.</desc>
    <defs></defs>
    <g id="Page-1" stroke="none" stroke-width="1" fill="none" fill-rule="evenodd">
        <g id="xblockly弹窗切图专用" transform="translate(-703.000000, -53.000000)" fill="#FFFFFF">
            <g id="icon_suctioncup_white" transform="translate(703.000000, 53.000000)">
                <path d="M3.53028518,5.36041312 L1.67734401,5.36041312 L1.67734401,2.45718732 L3.53028518,2.45718732 L3.53028518,1.58621958 L8.82440283,1.58621958 L8.82440283,2.45718732 L10.677344,2.45718732 L10.677344,5.36041312 L8.82440283,5.36041312 L8.82440283,6.81202603 L9.08910871,6.81202603 L9.87444254,7.40806674 C10.3856036,7.79601996 10.3504698,8.37958538 9.80475971,8.7062347 L9.21348495,9.06015796 L10.0640711,9.95734089 C10.3933525,10.304661 10.2750689,10.5862196 9.78435354,10.5862196 L2.57112641,10.5862196 C2.08736123,10.5862196 1.96789792,10.2985744 2.29140883,9.95734089 L3.14541034,9.05655552 L2.66049326,8.74159615 C2.12388293,8.39306142 2.08674356,7.78285379 2.58776409,7.37023936 L3.2655793,6.81202603 L3.53028518,6.81202603 L3.53028518,5.36041312 Z"></path>
            </g>
        </g>
    </g>
</svg>