<?xml version="1.0" encoding="UTF-8" standalone="no"?>
<svg width="12px" height="14px" viewBox="0 0 12 14" version="1.1" xmlns="http://www.w3.org/2000/svg" xmlns:xlink="http://www.w3.org/1999/xlink">
    <!-- Generator: Sketch 49.1 (51147) - http://www.bohemiancoding.com/sketch -->
    <title>icon_pathfile_dark</title>
    <desc>Created with Sketch.</desc>
    <defs></defs>
    <g id="Page-1" stroke="none" stroke-width="1" fill="none" fill-rule="evenodd">
        <g id="xblockly弹窗切图专用" transform="translate(-928.000000, -32.000000)" fill="#444444" fill-rule="nonzero">
            <g id="icon_pathfile_dark" transform="translate(928.000000, 32.000000)">
                <g id="Shape">
                    <path d="M2.90683866,13.9999974 L10.7638995,13.9999974 C11.439914,13.9999974 12,13.4883528 12,12.8412883 C12,12.1942238 11.439914,11.6827548 10.7638995,11.6827548 L1.78437623,11.6827548 C1.5304964,11.6827548 1.33669501,11.5057078 1.33669501,11.3037197 C1.33669501,11.101556 1.5304964,10.924509 1.78437623,10.924509 L3.18749831,10.924509 C3.29161971,10.9249758 3.39165742,10.8841639 3.46557991,10.8110615 C3.53950241,10.7379591 3.58124689,10.6385617 3.58161987,10.5347598 C3.58120018,10.4309724 3.53944079,10.3316021 3.46552848,10.2585098 C3.39161616,10.1854175 3.29160557,10.1445905 3.18749831,10.1450106 L1.78437623,10.1450106 C1.10853792,10.1450106 0.548451897,10.6564796 0.548451897,11.3037197 C0.548451897,11.9507842 1.10853792,12.4622532 1.78437623,12.4622532 L10.7638995,12.4622532 C11.0179555,12.4622532 11.2117569,12.6391245 11.2117569,12.8412883 C11.2117569,13.043452 11.0179555,13.2203233 10.7638995,13.2203233 L2.90683866,13.2203233 C2.69001772,13.2195458 2.51359115,13.3940937 2.51271709,13.6102482 C2.51368811,13.826334 2.69008622,14.0007751 2.90683866,13.9999974 Z M1.96729556,7.57142217 C1.94946993,7.5528863 1.92770392,7.52708897 1.90556263,7.49498562 C1.2985535,6.69393061 0.262416116,5.17475423 0.0396897344,3.86080999 C0.00122392322,3.59423753 9.81008854e-05,3.42416621 9.81008854e-05,3.40945218 C-0.00684450085,2.48514324 0.354921681,1.6183528 1.01765932,0.969406509 C1.656004,0.344155549 2.4984989,7.10542736e-15 3.3897797,7.10542736e-15 C4.284438,7.10542736e-15 5.12918456,0.344155549 5.76752925,0.969406509 C6.42670175,1.61491315 6.78621629,2.47730849 6.77927368,3.39492923 C6.77927368,3.4134651 6.77814785,3.58296314 6.73818095,3.862912 C6.53065325,5.09086514 5.61272785,6.50933636 4.87437207,7.48810634 C4.85241841,7.52078296 4.82990184,7.54734466 4.81226386,7.56645379 C4.29588391,8.2018326 3.77612648,8.6310238 3.75360991,8.6489864 L3.39184373,8.94536911 L3.02857644,8.65127949 C3.00605987,8.6333169 2.4846137,8.20909406 1.96729556,7.57142217 Z M3.4396514,4.99029516 C4.51001711,4.99029516 5.37771996,4.12172755 5.37771996,3.0502951 C5.37771996,1.97886266 4.51001711,1.11029505 3.4396514,1.11029505 C2.3692857,1.11029505 1.50158285,1.97886266 1.50158285,3.0502951 C1.50158285,4.12172755 2.3692857,4.99029516 3.4396514,4.99029516 Z"></path>
                </g>
            </g>
        </g>
    </g>
</svg>