<?xml version="1.0" encoding="UTF-8" standalone="no"?>
<svg width="12px" height="12px" viewBox="0 0 12 12" version="1.1" xmlns="http://www.w3.org/2000/svg" xmlns:xlink="http://www.w3.org/1999/xlink">
    <!-- Generator: Sketch 49.1 (51147) - http://www.bohemiancoding.com/sketch -->
    <title>icon_gripper_dark</title>
    <desc>Created with Sketch.</desc>
    <defs></defs>
    <g id="Page-1" stroke="none" stroke-width="1" fill="none" fill-rule="evenodd">
        <g id="xblockly弹窗切图专用" transform="translate(-752.000000, -33.000000)" fill="#444444">
            <g id="icon_gripper_dark" transform="translate(752.000000, 33.000000)">
                <path d="M8.88340796,8.17910043 L7.72682108,7.51134468 L4.24352413,7.51134468 L3.08693725,8.17910043 L3.08693725,10.9951995 L2.00171314,10.9951995 L2.00171314,7.55650231 L2,7.55353508 L2.00171314,7.552546 L2.00221354,7.55225709 L3.62649046,6.61448037 L3.62649046,3.44175426 C3.62649046,2.09321062 4.71970108,1 6.06824472,1 C7.41678835,1 8.50999897,2.09321062 8.50999897,3.44175426 L8.50999897,6.71040378 L9.96813167,7.55225709 L9.96863207,7.55225709 L9.97034521,7.55353508 L9.96863207,7.55650231 L9.96863207,10.9951995 L8.88340796,10.9951995 L8.88340796,8.17910043 Z M3.20687574,8.82955177 L3.47818176,8.82955177 L3.47818176,11 L3.20687574,11 L3.20687574,8.82955177 Z M8.76346947,8.82955177 L8.76346947,11 L8.49216344,11 L8.49216344,8.82955177 L8.76346947,8.82955177 Z"></path>
            </g>
        </g>
    </g>
</svg>