<?xml version="1.0" encoding="UTF-8" standalone="no"?>
<svg width="12px" height="12px" viewBox="0 0 12 12" version="1.1" xmlns="http://www.w3.org/2000/svg" xmlns:xlink="http://www.w3.org/1999/xlink">
    <!-- Generator: Sketch 49.1 (51147) - http://www.bohemiancoding.com/sketch -->
    <title>language_python_whjte</title>
    <desc>Created with Sketch.</desc>
    <defs></defs>
    <g id="Page-1" stroke="none" stroke-width="1" fill="none" fill-rule="evenodd">
        <g id="xblockly弹窗切图专用" transform="translate(-801.000000, -53.000000)" fill="#FFFFFF" fill-rule="nonzero">
            <g id="language_python_white" transform="translate(801.000000, 53.000000)">
                <path d="M10.284,3 C11.2317206,3 12,3.76827937 12,4.716 L12,6.984 C12,7.93172063 11.2317206,8.69999999 10.284,8.69999999 L6,8.69999999 C6,8.93399999 6.192,9.27599999 6.42599999,9.27599999 L8.99999999,9.27599999 L8.99999999,10.284 C8.99999999,11.2317206 8.23172063,12 7.284,12 L4.716,12 C3.76827937,12 3.00000001,11.2317206 3.00000001,10.284 L3.00000001,8.03399999 C2.99999721,7.57943831 3.1809808,7.14358137 3.50296686,6.82272113 C3.82495293,6.50186089 4.26144112,6.32240504 4.716,6.32399999 L7.86599999,6.32399999 C8.32056167,6.32400279 8.75641862,6.1430192 9.07727886,5.82103314 C9.3981391,5.49904707 9.57759494,5.06255888 9.57599999,4.608 L9.57599999,3 L10.284,3 Z M7.716,10.074 C7.476,10.074 7.284,10.254 7.284,10.608 C7.284,10.962 7.476,11.034 7.716,11.034 C7.82898223,11.034 7.937337,10.989118 8.01722749,10.9092275 C8.09711799,10.829337 8.142,10.7209822 8.142,10.608 C8.142,10.254 7.95,10.074 7.716,10.074 Z M1.716,9 C0.768279371,9 1.99840144e-16,8.23172063 0,7.284 L0,5.016 C-1.99840144e-16,4.06827936 0.768279371,3.29999999 1.716,3.29999999 L6,3.29999999 C6,3.06599999 5.808,2.72399999 5.57400001,2.72399999 L3.00000001,2.72399999 L3.00000001,1.71599999 C3.00000001,0.768279369 3.76827937,7.76650424e-09 4.716,0 L7.284,0 C8.23172063,7.76650524e-09 8.99999999,0.768279369 8.99999999,1.71599999 L8.99999999,3.96599999 C9.00000279,4.42056167 8.8190192,4.85641862 8.49703314,5.17727886 C8.17504707,5.4981391 7.73855888,5.67759494 7.284,5.67599999 L4.13400001,5.67599999 C3.67943832,5.67599719 3.24358138,5.85698079 2.92272114,6.17896686 C2.60186089,6.50095292 2.42240505,6.93744111 2.42400001,7.392 L2.42400001,9 L1.716,9 Z M4.284,1.926 C4.524,1.926 4.716,1.746 4.716,1.39199999 C4.716,1.038 4.524,0.965999996 4.284,0.965999996 C4.05,0.965999996 3.858,1.038 3.858,1.39199999 C3.858,1.74599999 4.05,1.92599999 4.284,1.926 Z" id="language_python_whjte"></path>
            </g>
        </g>
    </g>
</svg>