<?xml version="1.0" encoding="UTF-8" standalone="no"?>
<svg width="48px" height="46px" viewBox="0 0 48 46" version="1.1" xmlns="http://www.w3.org/2000/svg" xmlns:xlink="http://www.w3.org/1999/xlink">
    <!-- Generator: Sketch 48.2 (47327) - http://www.bohemiancoding.com/sketch -->
    <title>icon_setting</title>
    <desc>Created with Sketch.</desc>
    <defs></defs>
    <g id="xstudio_setting_v1.0" stroke="none" stroke-width="1" fill="none" fill-rule="evenodd" transform="translate(-343.000000, -61.000000)">
        <g id="icon_setting" transform="translate(344.000000, 62.000000)" fill="#444444" fill-rule="nonzero" stroke="#444444" stroke-width="1.5">
            <path d="M23.0291992,31.0761422 C28.1403103,31.0761422 32.1333659,26.9726158 32.1333659,21.9221218 C32.1333659,16.8716278 27.9805881,12.7681014 23.0291992,12.7681014 C17.9180881,12.7681014 13.9250326,16.8716278 13.9250326,21.9221218 C13.9250326,26.9726158 18.0778103,31.0761422 23.0291992,31.0761422 Z M23.0291992,28.5508952 C19.3555881,28.5508952 16.3208659,25.5521643 16.3208659,21.9221218 C16.3208659,18.2920792 19.3555881,15.2933484 23.0291992,15.2933484 C26.7028103,15.2933484 29.7375326,18.2920792 29.7375326,21.9221218 C29.7375326,25.5521643 26.7028103,28.5508952 23.0291992,28.5508952 Z M9.90277778,38.2562776 C11.6597222,39.676729 13.5763889,40.7815246 15.4930556,41.5706643 C17.5694444,39.676729 20.2847222,38.5719335 23,38.5719335 C25.875,38.5719335 28.4305556,39.676729 30.5069444,41.5706643 C32.5833333,40.7815246 34.5,39.676729 36.0972222,38.2562776 C35.4583333,35.5732026 35.9375,32.7322998 37.2152778,30.2070528 C38.6527778,27.8396337 40.8888889,25.9456984 43.6041667,25.1565588 C43.7638889,24.0517632 43.9236111,22.9469676 43.9236111,21.8421721 C43.9236111,20.7373765 43.7638889,19.6325809 43.6041667,18.5277854 C40.8888889,17.7386457 38.6527778,15.8447104 37.2152778,13.4772914 C35.7777778,11.1098723 35.4583333,8.11114149 36.0972222,5.42806655 C34.3402778,4.00761511 32.4236111,2.90281954 30.5069444,2.11367985 C28.4305556,4.00761511 25.875,5.11241067 23,5.11241067 C20.2847222,5.11241067 17.5694444,4.00761511 15.4930556,2.11367985 C13.4166667,2.90281954 11.5,4.00761511 9.90277778,5.42806655 C10.5416667,8.11114149 10.0625,10.9520444 8.78472222,13.4772914 C7.34722222,15.8447104 5.11111111,17.7386457 2.39583333,18.5277854 C2.23611111,19.6325809 2.07638889,20.7373765 2.07638889,21.8421721 C2.07638889,22.9469676 2.23611111,24.0517632 2.39583333,25.1565588 C5.11111111,25.9456984 7.34722222,27.8396337 8.78472222,30.2070528 C10.0625,32.7322998 10.5416667,35.5732026 9.90277778,38.2562776 Z M15.4930556,43.9380833 C12.7777778,42.9911157 10.2222222,41.5706643 7.98611111,39.5189011 C7.66666667,39.2032452 7.50694444,38.7297614 7.66666667,38.4141055 C8.46527778,36.0466865 8.14583333,33.5214394 6.86805556,31.4696763 C5.59027778,29.2600851 3.67361111,27.8396337 1.27777778,27.3661499 C0.798611111,27.2083219 0.479166667,26.8926661 0.479166667,26.4191823 C0.159722222,24.9987308 0,23.4204514 0,22 C0,20.5795486 0.159722222,19.1590971 0.479166667,17.5808177 C0.638888889,17.1073339 0.958333333,16.7916781 1.27777778,16.6338501 C3.67361111,16.0025384 5.75,14.5820869 6.86805556,12.5303237 C8.14583333,10.3207326 8.30555556,7.95331355 7.66666667,5.58589448 C7.50694444,5.11241067 7.66666667,4.63892686 7.98611111,4.48109892 C10.2222222,2.58716367 12.7777778,1.16671223 15.4930556,0.0619166647 C15.9722222,-0.095911273 16.2916667,0.0619166647 16.6111111,0.37757254 C18.3680556,2.11367985 20.6041667,3.21847542 23,3.21847542 C25.3958333,3.21847542 27.7916667,2.27150779 29.3888889,0.37757254 C29.7083333,0.0619166647 30.1875,-0.095911273 30.5069444,0.0619166647 C33.2222222,1.00888429 35.7777778,2.42933573 38.0138889,4.48109892 C38.3333333,4.79675479 38.4930556,5.27023861 38.3333333,5.58589448 C37.5347222,7.95331355 37.8541667,10.4785606 39.1319444,12.5303237 C40.4097222,14.7399149 42.3263889,16.1603663 44.7222222,16.6338501 C45.2013889,16.7916781 45.5208333,17.1073339 45.5208333,17.5808177 C45.8402778,19.0012692 46,20.5795486 46,22 C46,23.4204514 45.8402778,24.8409029 45.5208333,26.4191823 C45.3611111,26.8926661 45.0416667,27.2083219 44.7222222,27.3661499 C42.3263889,27.9974616 40.25,29.4179131 39.1319444,31.4696763 C37.8541667,33.6792674 37.6944444,36.0466865 38.3333333,38.4141055 C38.4930556,38.8875893 38.3333333,39.3610731 38.0138889,39.5189011 C35.7777778,41.4128363 33.2222222,42.8332878 30.5069444,43.9380833 C30.0277778,44.0959113 29.7083333,43.9380833 29.3888889,43.6224275 C27.6319444,41.8863201 25.3958333,40.7815246 23,40.7815246 C20.6041667,40.7815246 18.2083333,41.7284922 16.6111111,43.6224275 C16.4513889,43.7802554 16.1319444,43.9380833 15.8125,43.9380833 L15.4930556,43.9380833 Z" id="Shape"></path>
        </g>
    </g>
</svg>