<svg xmlns="http://www.w3.org/2000/svg" viewBox="0 0 51.16 51.16"><defs><style>.cls-1{fill:none;stroke:#cbd3da;stroke-miterlimit:10;stroke-width:2px;}.cls-2{fill:#cbd3da;}</style></defs><title>吊装</title><g id="图层_2" data-name="图层 2"><g id="图层_1-2" data-name="图层 1"><rect class="cls-1" x="1" y="1" width="49.16" height="49.16" rx="8.55" ry="8.55"/><path class="cls-2" d="M29.43,1.34h.91l.09,0,.89.07a5.79,5.79,0,0,1,1.44.34c.2.08.39.18.58.28a.22.22,0,0,1,.13.22c0,.16,0,.32,0,.48a.35.35,0,0,1-.1.26,1.09,1.09,0,0,1-.35.27l-.45.19-.12,0c0,.08,0,.15,0,.22,0,.39,0,.78,0,1.17,0,1,0,2,0,2.95,0,1.54,0,3.08.07,4.61,0,.66,0,1.32,0,2s0,1.25.05,1.88.08,1.47.11,2.2a7.44,7.44,0,0,1-.1,1.66,3.83,3.83,0,0,1-.53,1.41.37.37,0,0,0-.06.22c0,.22,0,.44,0,.67q0,1.53,0,3.06a.32.32,0,0,0,0,.14,3.15,3.15,0,0,1,.34,1.61c0,.24-.07.48-.09.73,0,.42-.07.85-.08,1.28,0,.73,0,1.47,0,2.2,0,.07,0,.15,0,.22,0,.59-.06,1.18-.07,1.78s0,1.25-.07,1.87a8.88,8.88,0,0,1-.31,1.78,6.94,6.94,0,0,1-1.76,3,7.71,7.71,0,0,1-1.76,1.28,6.23,6.23,0,0,1-1.36.57,3.14,3.14,0,0,1-1.55.07,2.94,2.94,0,0,1-2.24-2,.59.59,0,0,0-.12-.21l-1.44-1.62c-.43-.49-.86-1-1.33-1.43l-.68-.65a.65.65,0,0,0-.19-.13,2.58,2.58,0,0,1-1.45-1.53,3.57,3.57,0,0,1-.18-1.18c0-.52,0-1,0-1.57q0-2.59,0-5.17c0-.3,0-.61,0-.91s0-.66,0-1,0-.44,0-.66.07-.47.09-.71c0-.49.06-1,.07-1.48,0-1.07,0-2.15,0-3.23,0,0,0-.08,0-.12l-.16,0-.43,0h-.19l-.45.08a10.47,10.47,0,0,1-1.51.06,6.47,6.47,0,0,1-1.47-.2.84.84,0,0,1-.44-.28,1.16,1.16,0,0,1-.28-.68.37.37,0,0,0,0-.07v-.89c0-.06,0-.12,0-.19q0-3.22,0-6.44a.28.28,0,0,1,.15-.27.76.76,0,0,1,.18-.08l.42-.1A.3.3,0,0,0,14,9.23a.21.21,0,0,1,.12,0l.37,0,.93,0a.55.55,0,0,1,.35.05h.08l.69,0a5.59,5.59,0,0,1,.92.13,3.46,3.46,0,0,1,.44.15.22.22,0,0,1,.14.23c0,1.24,0,2.48,0,3.73,0,.07,0,.14,0,.21a.62.62,0,0,0,.11.35.2.2,0,0,0,.35,0,3.08,3.08,0,0,1,.51-.5,2.4,2.4,0,0,1,2.14-.47,2.53,2.53,0,0,1,2,2.59c0,.37,0,.74,0,1.11q0,1.9,0,3.79c0,.46,0,.91,0,1.37a10.1,10.1,0,0,0,.15,1.51,6.55,6.55,0,0,1,.12.82c0,.53,0,1.07,0,1.6s0,1.23,0,1.85c0,1,0,1.91,0,2.87,0,.52,0,1,0,1.56a.26.26,0,0,0,.09.2c.4.41.81.82,1.21,1.25s1,1.1,1.5,1.65l.07.06c0-.07,0-.12.06-.18s.07-.29.1-.43a6.55,6.55,0,0,0,.06-1.26,12.2,12.2,0,0,1,0-1.24c0-.3,0-.59,0-.89s0-.67,0-1,0-.88,0-1.32a.56.56,0,0,0-.06-.22,5.76,5.76,0,0,1-.24-.57,3.17,3.17,0,0,1-.16-1q0-2.7,0-5.39c0-.49,0-1,0-1.48a2.74,2.74,0,0,1,0-.41,6.59,6.59,0,0,0,.09-.87c0-.24,0-.49,0-.73s0-.74,0-1.11c0,0,0-.07,0-.1,0-.48,0-1,0-1.45s0-1,0-1.53c0-.08,0-.16,0-.23q0-3.35,0-6.7,0-1.72,0-3.44s0-.09,0-.13l-.14,0a2.56,2.56,0,0,1-.53-.22,1,1,0,0,1-.3-.26.36.36,0,0,1-.07-.23c0-.15,0-.3,0-.44a.25.25,0,0,1,.07-.19,2.12,2.12,0,0,1,.44-.34l.1,0,1-.19a19.13,19.13,0,0,1,2.61-.29Z"/></g></g></svg>