<svg xmlns="http://www.w3.org/2000/svg" viewBox="0 0 51.16 51.16"><defs><style>.cls-1{fill:none;stroke:#cbd3da;stroke-miterlimit:10;stroke-width:2px;}.cls-2{fill:#cbd3da;}</style></defs><title> 其它角度</title><g id="图层_2" data-name="图层 2"><g id="图层_1-2" data-name="图层 1"><rect class="cls-1" x="1" y="1" width="49.16" height="49.16" rx="8.55" ry="8.55"/><path class="cls-2" d="M7.92,35.36l-.64-.64,0-.07c-.19-.23-.39-.45-.57-.68a5.79,5.79,0,0,1-.78-1.25c-.09-.2-.15-.4-.22-.61a.22.22,0,0,1,.07-.25l.34-.34a.35.35,0,0,1,.26-.11,1.09,1.09,0,0,1,.44.06l.45.19.12.05.15-.15.82-.83,2.09-2.08c1.09-1.09,2.16-2.19,3.21-3.31.45-.48.92-.94,1.38-1.42s.87-.9,1.29-1.37,1-1.09,1.47-1.63A7.44,7.44,0,0,1,19,19.81a3.83,3.83,0,0,1,1.37-.62.37.37,0,0,0,.2-.11L21,18.6l2.15-2.18a.32.32,0,0,0,.07-.12,3.15,3.15,0,0,1,.9-1.38c.18-.16.39-.3.58-.45s.65-.55,1-.85c.53-.51,1-1,1.57-1.55l.16-.16c.45-.38.88-.79,1.31-1.21s.89-.87,1.37-1.27a8.88,8.88,0,0,1,1.48-1,6.94,6.94,0,0,1,3.37-.88,7.71,7.71,0,0,1,2.15.34,6.23,6.23,0,0,1,1.37.56,3.14,3.14,0,0,1,1.14,1,2.94,2.94,0,0,1,.14,3,.59.59,0,0,0-.06.23c0,.72-.09,1.44-.13,2.16s-.09,1.3-.07,2c0,.31,0,.63,0,.94a.65.65,0,0,0,0,.23,2.58,2.58,0,0,1-.06,2.1,3.57,3.57,0,0,1-.7,1l-1.11,1.11L34,25.86l-.64.65-.72.68-.5.44c-.18.15-.38.28-.56.44-.37.33-.74.65-1.09,1-.77.75-1.53,1.51-2.29,2.27l-.09.09.1.12.28.33.14.12c.12.09.25.17.37.26a10.47,10.47,0,0,1,1.11,1,6.47,6.47,0,0,1,.9,1.18.84.84,0,0,1,.11.51,1.16,1.16,0,0,1-.28.68l0,.07-.63.63-.14.12L25.45,41a.28.28,0,0,1-.3.08A.76.76,0,0,1,25,41l-.37-.23a.3.3,0,0,0-.16-.07.21.21,0,0,1-.12-.05L24,40.41l-.69-.63a.55.55,0,0,1-.21-.28s0,0,0-.06l-.45-.52a5.59,5.59,0,0,1-.56-.75,3.46,3.46,0,0,1-.21-.42.22.22,0,0,1,.06-.27l2.64-2.63.15-.15a.62.62,0,0,0,.17-.33.2.2,0,0,0-.24-.25,3.08,3.08,0,0,1-.71,0,2.4,2.4,0,0,1-1.85-1.18,2.53,2.53,0,0,1,.41-3.25l.8-.77L26,26.24l1-1a10.1,10.1,0,0,0,1-1.18,6.55,6.55,0,0,1,.5-.67c.36-.39.73-.77,1.11-1.15L30.85,21l2-2,1.1-1.1a.26.26,0,0,0,.08-.2c0-.58,0-1.16,0-1.73,0-.74.07-1.48.11-2.22,0,0,0-.06,0-.09l-.17.08-.38.24a6.55,6.55,0,0,0-.94.85,12.2,12.2,0,0,1-.89.87c-.23.19-.44.39-.66.6s-.47.47-.7.71l-.9,1a.56.56,0,0,0-.11.2,5.76,5.76,0,0,1-.23.58,3.17,3.17,0,0,1-.62.85l-3.81,3.82-1.05,1a2.74,2.74,0,0,1-.31.27,6.59,6.59,0,0,0-.68.55l-.53.5-.81.76-.07.07c-.35.33-.7.66-1,1s-.71.74-1.06,1.11l-.17.16-4.73,4.74L11.9,36l-.09.09.07.13a2.56,2.56,0,0,1,.22.53,1,1,0,0,1,0,.4.36.36,0,0,1-.11.21l-.31.31a.25.25,0,0,1-.19.09,2.12,2.12,0,0,1-.55-.07l-.09,0-.83-.56a19.13,19.13,0,0,1-2-1.64Z"/></g></g></svg>