<svg xmlns="http://www.w3.org/2000/svg" viewBox="0 0 51.16 51.16"><defs><style>.cls-1{fill:none;stroke:#cbd3da;stroke-miterlimit:10;stroke-width:2px;}.cls-2{fill:#cbd3da;}</style></defs><title>壁装</title><g id="图层_2" data-name="图层 2"><g id="图层_1-2" data-name="图层 1"><rect class="cls-1" x="1" y="1" width="49.16" height="49.16" rx="8.55" ry="8.55"/><path class="cls-2" d="M1.07,20.84v-.91a.85.85,0,0,0,0-.09c0-.3,0-.59.07-.89a5.79,5.79,0,0,1,.34-1.44c.08-.2.18-.39.28-.58A.22.22,0,0,1,2,16.81h.48a.35.35,0,0,1,.26.1,1.09,1.09,0,0,1,.27.35c.07.15.12.3.19.45l0,.12H7.57c1.54,0,3.08,0,4.61-.07l2,0L16,17.7l2.2-.11a7.44,7.44,0,0,1,1.66.1,3.83,3.83,0,0,1,1.41.53.37.37,0,0,0,.22.06h.67l3.06,0a.32.32,0,0,0,.14,0A3.15,3.15,0,0,1,27,17.87c.24,0,.48.07.73.09.42,0,.85.07,1.28.08.73,0,1.47,0,2.2,0h.22c.59,0,1.18.06,1.78.07s1.25,0,1.87.07a8.88,8.88,0,0,1,1.78.31,6.94,6.94,0,0,1,3,1.76A7.71,7.71,0,0,1,41.13,22a6.23,6.23,0,0,1,.57,1.36,3.14,3.14,0,0,1,.07,1.55,2.94,2.94,0,0,1-2,2.24.59.59,0,0,0-.21.12l-1.62,1.44c-.49.43-1,.86-1.43,1.33l-.65.68a.65.65,0,0,0-.13.19,2.58,2.58,0,0,1-1.53,1.45,3.57,3.57,0,0,1-1.18.18H31.4l-5.17,0h-.91l-1,0-.66,0c-.24,0-.47-.07-.71-.09-.49,0-1-.06-1.48-.07H18.13c0,.06,0,.11,0,.16s0,.29,0,.43a.89.89,0,0,0,0,.19c0,.15.06.3.08.45a10.47,10.47,0,0,1,.06,1.51,6.47,6.47,0,0,1-.2,1.47.84.84,0,0,1-.28.44,1.16,1.16,0,0,1-.68.28l-.07,0H15.92l-6.44,0a.28.28,0,0,1-.27-.15.76.76,0,0,1-.08-.18c0-.14-.07-.28-.1-.42A.3.3,0,0,0,9,36.31a.21.21,0,0,1,0-.12c0-.12,0-.24,0-.37q0-.47,0-.93a.55.55,0,0,1,.05-.35.17.17,0,0,0,0-.08c0-.23,0-.46,0-.69a5.59,5.59,0,0,1,.13-.92,3.46,3.46,0,0,1,.15-.44.22.22,0,0,1,.23-.14h3.94a.62.62,0,0,0,.35-.11.2.2,0,0,0,0-.35,3.08,3.08,0,0,1-.5-.51,2.4,2.4,0,0,1-.47-2.14,2.53,2.53,0,0,1,2.59-2l1.11,0h3.79l1.37,0A10.1,10.1,0,0,0,23.19,27,6.55,6.55,0,0,1,24,26.9c.53,0,1.07,0,1.6,0l1.85,0h4.43a.26.26,0,0,0,.2-.09c.41-.4.82-.81,1.25-1.21s1.1-1,1.65-1.5L35,24,34.87,24l-.43-.1a6.55,6.55,0,0,0-1.26-.06,12.2,12.2,0,0,1-1.24,0c-.3,0-.59,0-.89,0H30l-1.32,0a.56.56,0,0,0-.22.06,5.76,5.76,0,0,1-.57.24,3.17,3.17,0,0,1-1,.16H20a2.74,2.74,0,0,1-.41,0,6.59,6.59,0,0,0-.87-.09l-.73,0-1.11,0h-.1c-.48,0-1,0-1.45,0s-1,0-1.53,0H3.31l0,.14a2.56,2.56,0,0,1-.22.53,1,1,0,0,1-.26.3.36.36,0,0,1-.23.07H2.12a.25.25,0,0,1-.19-.07,2.12,2.12,0,0,1-.34-.44.28.28,0,0,1,0-.1c-.06-.33-.13-.65-.19-1A19.13,19.13,0,0,1,1.09,21,1.15,1.15,0,0,0,1.07,20.84Z"/></g></g></svg>