<svg xmlns="http://www.w3.org/2000/svg" viewBox="0 0 41.87 38.88"><defs><style>.cls-1{fill:#b5b5b6;}</style></defs><title>安装设置</title><g id="图层_2" data-name="图层 2"><g id="图层_1-2" data-name="图层 1"><path class="cls-1" d="M36.81,4.6H13.43a5.05,5.05,0,0,0-5,4.25l-5.11,0V1.71A1.7,1.7,0,0,0,1.69,0,1.7,1.7,0,0,0,0,1.71H0V36.94a1.7,1.7,0,0,0,1.69,1.71,1.7,1.7,0,0,0,1.68-1.71V12.31H8.62A5,5,0,0,0,13.43,16h3.2c.89,0,1.69.59,1.69,1.27a4.89,4.89,0,0,0,5.05,4.7h5.44a1.7,1.7,0,0,1,1.69,1.71V33.74a5.1,5.1,0,0,0,5.05,5.14h1.25a5.1,5.1,0,0,0,5.06-5.14v-24A5.11,5.11,0,0,0,36.81,4.6Z"/></g></g></svg>