<svg xmlns="http://www.w3.org/2000/svg" viewBox="0 0 41.31 33.78"><defs><style>.cls-1{fill:#b5b5b6;}</style></defs><title>运动设置</title><g id="图层_2" data-name="图层 2"><g id="图层_1-2" data-name="图层 1"><path class="cls-1" d="M37.08,25.34A4.22,4.22,0,0,0,33,28.56H12.16a3.05,3.05,0,0,1-3-3V20.94a3.05,3.05,0,0,1,3-3H33.63a5.05,5.05,0,0,0,5-5V8.27a5.05,5.05,0,0,0-5-5H8.31a4.22,4.22,0,1,0,0,2H33.63a3.05,3.05,0,0,1,3,3v4.57a3.05,3.05,0,0,1-3,3H12.16a5.05,5.05,0,0,0-5,5v4.57a5.05,5.05,0,0,0,5,5H33a4.22,4.22,0,1,0,4.09-5.22Z"/></g></g></svg>