<svg xmlns="http://www.w3.org/2000/svg" viewBox="0 0 41.31 33.78"><defs><style>.cls-1{fill:#fff;}</style></defs><title>运动设置-</title><g id="图层_2" data-name="图层 2"><g id="图层_1-2" data-name="图层 1"><path class="cls-1" d="M37.67,30.56H12.16a5.05,5.05,0,0,1-5-5V20.94a5.05,5.05,0,0,1,5-5H33.62a3.05,3.05,0,0,0,3-3V8.27a3.05,3.05,0,0,0-3-3H8.11v-2H33.62a5.05,5.05,0,0,1,5,5v4.57a5.05,5.05,0,0,1-5,5H12.16a3.05,3.05,0,0,0-3,3v4.57a3.05,3.05,0,0,0,3,3H37.67Z"/><circle class="cls-1" cx="4.22" cy="4.22" r="4.22"/><circle class="cls-1" cx="37.08" cy="29.56" r="4.22"/></g></g></svg>