<svg xmlns="http://www.w3.org/2000/svg" viewBox="0 0 37.6 37.87"><defs><style>.cls-1{fill:#fff;}</style></defs><title>工具设置-</title><g id="图层_2" data-name="图层 2"><g id="图层_1-2" data-name="图层 1"><path class="cls-1" d="M26,21.78a1.53,1.53,0,0,0-2-.14l-1.16,1.23L20.89,21,19,23.1h0l1.77,1.8-1.14,1.19a1.48,1.48,0,0,0,.25,2.07L28.8,37.4a1.43,1.43,0,0,0,1.8.11L35.07,33a1.59,1.59,0,0,0-.26-2.1Z"/><path class="cls-1" d="M28.17,19.32A9.4,9.4,0,0,0,34.28,17a9.7,9.7,0,0,0,3-9.81A.74.74,0,0,0,36,6.89l-5.27,5.3L25.56,6.88,30.9,1.56a.72.72,0,0,0-.27-1.2c-1.49-.47-4.47-.87-8.1,1.5A10.23,10.23,0,0,0,19,7.39a10,10,0,0,0,1.52,8l-2.76,2.36L8.19,8v-3l-5-3.06A1,1,0,0,0,2,2L.29,3.71A1,1,0,0,0,.15,5l3,5,3,0,9.44,9.66L1.31,31.8A3.08,3.08,0,0,0,.55,34a2.86,2.86,0,0,0,.15.74v0h0a1.23,1.23,0,0,0,.11.31l0,0h0a9.76,9.76,0,0,0,1.68,1.93,2.87,2.87,0,0,0,3.92,0L23.5,18A8.66,8.66,0,0,0,28.17,19.32ZM5,34.89a1.56,1.56,0,0,1-1.46-1.46,1.46,1.46,0,1,1,2.91,0A1.52,1.52,0,0,1,5,34.89Z"/></g></g></svg>