<?xml version="1.0" encoding="UTF-8" standalone="no"?>
<svg width="36px" height="36px" viewBox="0 0 36 36" version="1.1" xmlns="http://www.w3.org/2000/svg" xmlns:xlink="http://www.w3.org/1999/xlink">
    <!-- Generator: Sketch 49.1 (51147) - http://www.bohemiancoding.com/sketch -->
    <title>btn_delete</title>
    <desc>Created with Sketch.</desc>
    <defs></defs>
    <g id="Page-1" stroke="none" stroke-width="1" fill="none" fill-rule="evenodd">
        <g id="切图专用" transform="translate(-1079.000000, -59.000000)">
            <g id="btn_delete" transform="translate(1079.000000, 59.000000)">
                <g>
                    <circle id="Oval-11" fill="#616468" opacity="0.5" cx="18" cy="18" r="18"></circle>
                    <path d="M23.9042896,13.4246882 C23.8143536,13.0875497 23.7545143,12.9004109 23.7545143,12.9004109 C23.6567886,12.5520946 23.4092876,12.5520946 23.0417539,12.4918784 L21.0504154,12.2409176 C20.8029144,12.199812 20.8029144,12.199812 20.7055427,11.986351 C20.3790822,11.251858 20.2778157,10.8249362 19.9216125,10.8249362 L16.058614,10.8249362 C15.7024109,10.8249362 15.6050393,11.251858 15.2785787,11.9899568 C15.1812071,12.199812 15.1812071,12.199812 14.9337061,12.2448839 L12.9384727,12.4958447 C12.5744798,12.5557003 12.3117534,12.5895945 12.2147358,12.9379108 C12.2147358,12.9379108 12.1694138,13.0915161 12.075937,13.4246882 C11.9555502,13.8707205 11.9070415,13.8220428 12.3195431,13.8220428 L23.6606834,13.8220428 C24.0731851,13.8256485 24.0282171,13.8707205 23.9042896,13.4246882 Z M23.0242701,15.1942683 L13.3344985,15.1942683 C12.6824592,15.1942683 12.6513215,15.2752729 12.6906143,15.7347706 L13.4245756,24.6505825 C13.4875925,25.1026518 13.5346698,25.1942683 14.1118303,25.1942683 L22.2469384,25.1942683 C22.8240988,25.1942683 22.8711762,25.1022981 22.934193,24.6505825 L23.6681543,15.7347706 C23.7074472,15.2713819 23.6763094,15.1942683 23.0242701,15.1942683 Z" id="btn_trash_white" fill="#FFFFFF" fill-rule="nonzero"></path>
                </g>
            </g>
        </g>
    </g>
</svg>