<?xml version="1.0" encoding="UTF-8" standalone="no"?>
<svg width="44px" height="33px" viewBox="0 0 44 33" version="1.1" xmlns="http://www.w3.org/2000/svg" xmlns:xlink="http://www.w3.org/1999/xlink">
    <!-- Generator: Sketch 49.2 (51160) - http://www.bohemiancoding.com/sketch -->
    <title>icon_3rdparty</title>
    <desc>Created with Sketch.</desc>
    <defs></defs>
    <g id="Page-1" stroke="none" stroke-width="1" fill="none" fill-rule="evenodd">
        <g id="xstudio_appstorehome_v1.1" transform="translate(-888.000000, -626.000000)" fill="#4A4A4A">
            <g id="pen" transform="translate(843.000000, 574.000000)">
                <g id="icon_3rdparty" transform="translate(45.000000, 52.000000)">
                    <g>
                        <path d="M1.56963508,29.5905447 C1.56963508,29.5474837 6.39246732,24.6815904 6.39246732,24.7246514 C6.39246732,24.7677124 7.29674837,25.8872985 9.36367647,25.8872985 C11.4306046,25.8872985 12.8516176,24.0356754 12.8516176,22.2271133 C12.8516176,20.4185512 11.6028486,18.3085621 9.32061547,18.3085621 C7.03838235,18.3085621 6.39246732,19.4712092 6.39246732,19.4712092 L1.56963508,14.6053159 L6.73695534,7.15576253 L0.0625,7.15576253 L0.0625,0.352124183 L19.8275,0.352124183 L11.7320316,11.8494118 C11.7320316,11.8494118 19.612195,13.8302179 19.612195,22.1840523 C19.612195,28.6432026 14.2295697,32.6478758 9.36367647,32.6478758 C4.49778322,32.6478758 1.56963508,29.6336057 1.56963508,29.5905447 Z" id="3"></path>
                        <path d="M32.592,33 L28.96,33 L27.104,29.816 L25.152,29.816 L25.152,33 L22,33 L22,21 L27.056,21 C29.488,21 31.472,22.984 31.472,25.416 C31.472,26.696 30.912,27.848 30.048,28.648 L32.592,33 Z M25.152,23.656 L25.152,27.096 L27.104,27.096 C28.064,27.096 28.832,26.344 28.832,25.384 C28.832,24.424 28.064,23.656 27.104,23.656 L25.152,23.656 Z M33.4773336,33 L33.4773336,21 L37.9253336,21 C41.2373336,21 43.9253336,23.688 43.9253336,27 C43.9253336,30.312 41.2373336,33 37.9253336,33 L33.4773336,33 Z M36.6133336,24.216 L36.6133336,29.896 L37.9413336,29.896 C39.5093336,29.896 40.7893336,28.616 40.7893336,27.048 C40.7893336,25.496 39.5093336,24.216 37.9413336,24.216 L36.6133336,24.216 Z" id="RD"></path>
                    </g>
                </g>
            </g>
        </g>
    </g>
</svg>