<?xml version="1.0" encoding="UTF-8" standalone="no"?>
<svg width="28px" height="29px" viewBox="0 0 28 29" version="1.1" xmlns="http://www.w3.org/2000/svg" xmlns:xlink="http://www.w3.org/1999/xlink">
    <!-- Generator: Sketch 49 (51002) - http://www.bohemiancoding.com/sketch -->
    <title>icon_back</title>
    <desc>Created with Sketch.</desc>
    <defs>
        <path d="M2.86592518,4.86589417 L14.0829494,4.86589417 C19.697449,4.86589417 25,9.3886421 25,15.0031143 C25,20.3551501 20.8901576,24.7151618 15.6425555,25.1110669 L15.6425555,25.1403892 L6.2850836,25.1403892 L6.2850836,23.5807832 L14.8627525,23.5807832 C19.5414884,23.5807832 23.4404488,19.6818502 23.4404488,15.0031143 C23.4404488,10.3243783 18.7616854,6.4254454 14.0829494,6.4254454 L3.04117293,6.4254454 L6.61729148,10.0015462 L5.51309367,11.1041539 L-1.42108547e-14,5.58952506 L0.0468465064,5.54267972 L0.0156536309,5.51153105 L5.52866506,5.68434189e-14 L6.63286287,1.10107256 L2.86592518,4.86589417 Z" id="path-1"></path>
    </defs>
    <g id="Page-1" stroke="none" stroke-width="1" fill="none" fill-rule="evenodd">
        <g id="Artboard01" transform="translate(-60.000000, -69.000000)" fill-rule="nonzero">
            <g id="APPLICATONFORM">
                <g id="btn_back" transform="translate(62.000000, 71.000000)">
                    <g id="icon_back">
                        <use fill="#FFFFFF" fill-rule="evenodd" xlink:href="#path-1"></use>
                        <path stroke="#FFFFFF" stroke-width="1" d="M0.675932894,5.55844094 L0.353602607,5.23602089 L0.0468261522,5.54271195 L0.369159543,5.86513191 L0.675932894,5.55844094 Z M4.07351175,4.36589417 L14.0829494,4.36589417 C20.1122695,4.36589417 25.5,9.23555492 25.5,15.0031143 C25.5,20.4329439 21.4525775,24.9332751 16.1425555,25.5647483 L16.1425555,25.6403892 L5.7850836,25.6403892 L5.7850836,23.0807832 L14.8627525,23.0807832 C19.2653517,23.0807832 22.9404488,19.4057022 22.9404488,15.0031143 C22.9404488,10.7444684 18.6440216,6.9254454 14.0829494,6.9254454 L4.24828395,6.9254454 L7.32465397,10.0018001 L5.5127898,11.8110552 L-0.707061959,5.58947145 L-0.660515472,5.54292612 L-0.691751491,5.51173437 L5.52821184,-0.706558753 L7.34057068,1.10067051 L4.07351175,4.36589417 Z"></path>
                    </g>
                </g>
            </g>
        </g>
    </g>
</svg>