<?xml version="1.0" encoding="UTF-8" standalone="no"?>
<svg width="56px" height="56px" viewBox="0 0 56 56" version="1.1" xmlns="http://www.w3.org/2000/svg" xmlns:xlink="http://www.w3.org/1999/xlink">
    <!-- Generator: Sketch 49.1 (51147) - http://www.bohemiancoding.com/sketch -->
    <title>icon_pen</title>
    <desc>Created with Sketch.</desc>
    <defs></defs>
    <g id="Page-1" stroke="none" stroke-width="1" fill="none" fill-rule="evenodd">
        <g id="切图专用" transform="translate(-521.000000, -59.000000)">
            <g id="icon_pen" transform="translate(521.000000, 59.000000)">
                <g transform="translate(14.000000, 1.000000)">
                    <path d="M0.5,0 L27.5,0 C27.7761424,-5.07265313e-17 28,0.223857625 28,0.5 L28,33 L0,33 L0,0.5 C-3.38176876e-17,0.223857625 0.223857625,5.07265313e-17 0.5,0 Z" id="Rectangle-34" fill="#444444"></path>
                    <path d="M17.4102611,36.7016727 L17.4102611,47.324807 L14.0894427,53.9664437 C14.0797663,53.9857965 14.0640741,54.0014887 14.0447214,54.0111651 C13.9953235,54.035864 13.9352562,54.0158416 13.9105573,53.9664437 L10.5897389,47.324807 L10.5897389,36.7016727 L5.34533648,36.7016727 L5.34533648,32.9925312 L22.6546635,32.9925312 L22.6546635,36.7016727 L17.4102611,36.7016727 Z" id="Combined-Shape" fill="#444444"></path>
                    <rect id="Rectangle-49" fill="#898989" x="3" y="33" width="22" height="1"></rect>
                </g>
            </g>
        </g>
    </g>
</svg>