<svg xmlns="http://www.w3.org/2000/svg" viewBox="0 0 50.43 54.11"><defs><style>.cls-1{fill:#595757;stroke:#fff;stroke-miterlimit:10;}</style></defs><title>清报错</title><g id="图层_2" data-name="图层 2"><g id="图层_1-2" data-name="图层 1"><path class="cls-1" d="M49.83,48.62,44.68,26.67a4.06,4.06,0,0,0-4-3.14H32.38V4.29A3.8,3.8,0,0,0,28.55.5H21.86a3.79,3.79,0,0,0-3.79,3.79V23.5H9.75a4.06,4.06,0,0,0-4,3.14l-5.15,22a3.88,3.88,0,0,0,.77,3.45,4.12,4.12,0,0,0,3.17,1.54H45.88a4.1,4.1,0,0,0,3.21-1.54,4.18,4.18,0,0,0,.74-3.45ZM21.89,4.32h6.63V23.49H21.89ZM9.54,27.54c0-.09.09-.15.21-.15H40.82c.12,0,.21.06.21.18l1.36,5.79H8.18Zm36.59,22.1c-.09.09-.15.09-.18.09H39.41l-1.48-6a1.93,1.93,0,0,0-2.34-1.42,2,2,0,0,0-1.2.9,1.83,1.83,0,0,0-.21,1.45l1.26,5.12H27.17V42.46a1.95,1.95,0,0,0-3.89,0v7.28H15.05l1.23-5.12a1.94,1.94,0,1,0-3.76-.93L11,49.76H4.63s-.15,0-.18-.09a.34.34,0,0,1,0-.15l2.9-12.3h36v.06l2.86,12.24s0,.07-.07.12Z"/></g></g></svg>