<?xml version="1.0" encoding="UTF-8" standalone="no"?>
<svg width="30px" height="35px" viewBox="0 0 30 35" version="1.1" xmlns="http://www.w3.org/2000/svg" xmlns:xlink="http://www.w3.org/1999/xlink">
    <!-- Generator: Sketch 48.2 (47327) - http://www.bohemiancoding.com/sketch -->
    <title>icon_speed2</title>
    <desc>Created with Sketch.</desc>
    <defs></defs>
    <g id="xstudio_control_v1.0" stroke="none" stroke-width="1" fill="none" fill-rule="evenodd" transform="translate(-445.000000, -1014.000000)">
        <g id="speed-bar" transform="translate(10.000000, 1000.000000)" fill="#FD6B69">
            <g id="bar_speed" transform="translate(63.000000, 9.000000)">
                <g id="icon_speed2" transform="translate(372.000000, 5.000000)">
                    <path d="M6.94412908,11.7812732 L6.94412908,19.1439701 C6.94412908,19.9724056 7.61242993,20.653594 8.43682082,20.653594 L12.9163331,20.653594 C13.7465651,20.653594 14.1124315,21.256468 13.7465651,22.0001507 L7.60658878,34.4806486 C7.23676184,35.2323818 6.94412908,35.1513237 6.94412908,34.3175815 L6.94412908,26.9548846 C6.94412908,26.1264491 6.27582822,25.4452607 5.45143734,25.4452607 L0.971925063,25.4452607 C0.141693023,25.4452607 -0.224173367,24.8423867 0.141693023,24.0987039 L6.28166938,11.6182061 C6.65149632,10.8664729 6.94412908,10.9475309 6.94412908,11.7812732 Z M23.0558709,0.682418525 L23.0558709,8.0451154 C23.0558709,8.8735509 23.7241718,9.55473929 24.5485627,9.55473929 L29.0280749,9.55473929 C29.858307,9.55473929 30.2241734,10.1576133 29.858307,10.9012961 L23.7183306,23.3817939 C23.3485037,24.1335271 23.0558709,24.0524691 23.0558709,23.2187268 L23.0558709,15.8560299 C23.0558709,15.0275944 22.3875701,14.346406 21.5631792,14.346406 L17.0836669,14.346406 C16.2534349,14.346406 15.8875685,13.743532 16.2534349,12.9998493 L22.3934112,0.519351427 C22.7632382,-0.232381813 23.0558709,-0.151323726 23.0558709,0.682418525 Z"></path>
                </g>
            </g>
        </g>
    </g>
</svg>