<svg xmlns="http://www.w3.org/2000/svg" viewBox="0 0 51.83 51.83"><defs><style>.cls-1{fill:#595757;}</style></defs><title>设置</title><g id="图层_2" data-name="图层 2"><g id="图层_1-2" data-name="图层 1"><path class="cls-1" d="M25.74,51.83A14,14,0,0,1,20.68,51a1,1,0,0,1-.62-.88q0-.6-.05-1.2c0-.77-.07-1.56-.12-2.34,0-.46-.06-.48-.16-.53a9,9,0,0,0-1.27-.49c-.4-.13-.81-.27-1.22-.45-.25-.11-.48-.24-.71-.36a6,6,0,0,0-.72-.35c-.25-.09-.59.18-1.2.78-.15.15-.31.3-.46.44L12.57,47a1,1,0,0,1-1.19.11C6.16,44,4.53,40.13,4.47,40a1,1,0,0,1,.19-1.06l1.52-1.68.37-.4c.24-.25.46-.5.67-.74a1.35,1.35,0,0,0-.17-.7l-.25-.54c-.13-.27-.26-.55-.38-.85a8.53,8.53,0,0,1-.3-.95c-.2-.71-.35-1.18-.63-1.27a10.31,10.31,0,0,0-2.76-.31l-1.18,0a1,1,0,0,1-.92-.76c-1.48-5.91.12-9.81.19-10a1,1,0,0,1,.88-.62l4.14-.2a20.65,20.65,0,0,1,1.79-4.07L4.79,12.57a1,1,0,0,1-.11-1.19c3.13-5.22,7-6.85,7.18-6.91a1,1,0,0,1,1.06.19l3.27,3a20.67,20.67,0,0,1,3.65-1.43l.22-4.49a1,1,0,0,1,.62-.88c.16-.07,4.06-1.67,10-.19a1,1,0,0,1,.76.92l.3,4.72A20.67,20.67,0,0,1,35.43,7.8L38.9,4.65A1,1,0,0,1,40,4.47c.16.07,4.05,1.69,7.18,6.91A1,1,0,0,1,47,12.57l-3.17,3.59a20.69,20.69,0,0,1,1.57,3.67l4.69.23a1,1,0,0,1,.88.62c.07.16,1.67,4.06.19,10a1,1,0,0,1-.92.76l-4.63.29a20.66,20.66,0,0,1-1.5,3.87l3,3.32A1,1,0,0,1,47.37,40a9.48,9.48,0,0,1-.79,1.43,1,1,0,1,1-1.7-1.09c.14-.21.25-.4.33-.55l-3-3.34a1,1,0,0,1-.13-1.17,18.65,18.65,0,0,0,1.83-4.73,1,1,0,0,1,.92-.77l4.61-.29a15.69,15.69,0,0,0-.07-7.4l-4.71-.23a1,1,0,0,1-.92-.74,18.66,18.66,0,0,0-1.94-4.53,1,1,0,0,1,.11-1.18L45,11.8a15.69,15.69,0,0,0-5.28-5.18l-3.5,3.17a1,1,0,0,1-1.19.12A18.64,18.64,0,0,0,30.49,8a1,1,0,0,1-.75-.91l-.3-4.68a15.85,15.85,0,0,0-7.4.07L21.83,7a1,1,0,0,1-.76.93,18.65,18.65,0,0,0-4.53,1.78,1,1,0,0,1-1.17-.13l-3.28-3A15.86,15.86,0,0,0,6.81,11.8L9.64,15a1,1,0,0,1,.1,1.2,18.64,18.64,0,0,0-2.16,4.89,1,1,0,0,1-.92.74L2.49,22a15.85,15.85,0,0,0-.07,7.38h.35a12,12,0,0,1,3.3.4,3.28,3.28,0,0,1,2,2.66,7,7,0,0,0,.23.72c.1.25.22.49.34.75l.27.59a2.51,2.51,0,0,1-.11,2.79c-.25.3-.51.57-.76.84l-.35.38L6.62,39.75A15.86,15.86,0,0,0,11.8,45l1-.9.38-.36c.68-.67,1.82-1.79,3.32-1.24a7.59,7.59,0,0,1,1,.47c.2.11.39.21.56.29s.67.26,1,.38a10.62,10.62,0,0,1,1.56.61,2.36,2.36,0,0,1,1.25,2.2c.05.8.09,1.6.12,2.38l0,.49a15.86,15.86,0,0,0,7.39.07l.27-4.24a1,1,0,0,1,.75-.91A18.64,18.64,0,0,0,35.56,42a1,1,0,0,1,1.2.1L40,45l.19-.13c.3-.22,3.61-3.28,5.44-5h0a1,1,0,0,1,0,2c-.77,1.6-4.26,4.6-4.28,4.62l0,0c-.3.2-.6.39-.92.58A1,1,0,0,1,39.26,47L36,44.15A20.65,20.65,0,0,1,31.69,46l-.27,4.28a1,1,0,0,1-.76.92A20.26,20.26,0,0,1,25.74,51.83Z"/><path class="cls-1" d="M25.92,38.53a12.61,12.61,0,1,1,8.92-3.69A12.53,12.53,0,0,1,25.92,38.53Zm0-23.2A10.59,10.59,0,1,0,36.51,25.92,10.6,10.6,0,0,0,25.92,15.32Z"/></g></g></svg>