<?xml version="1.0" encoding="UTF-8" standalone="no"?>
<svg width="11px" height="13px" viewBox="0 0 11 13" version="1.1" xmlns="http://www.w3.org/2000/svg" xmlns:xlink="http://www.w3.org/1999/xlink">
    <!-- Generator: Sketch 48.2 (47327) - http://www.bohemiancoding.com/sketch -->
    <title>btn_trash_dark</title>
    <desc>Created with Sketch.</desc>
    <defs></defs>
    <g id="icons_recording切图专用" stroke="none" stroke-width="1" fill="none" fill-rule="evenodd" transform="translate(-208.000000, -31.000000)">
        <g id="2icons" transform="translate(178.000000, 31.000000)" fill="#575C62" fill-rule="nonzero">
            <g id="btn_trash_dark" transform="translate(30.000000, 0.000000)">
                <path d="M10.9206277,2.34876961 C10.8381864,2.04417882 10.7833337,1.8751065 10.7833337,1.8751065 C10.6937518,1.56041698 10.4668759,1.56041698 10.12997,1.50601413 L8.30457636,1.27928131 C8.07770044,1.24214404 8.07770044,1.24214404 7.98844311,1.04929083 C7.6891876,0.38570641 7.59635997,0 7.26984041,0 L3.72875849,0 C3.40223893,0 3.31298159,0.38570641 3.01372609,1.05254849 C2.92446876,1.24214404 2.92446876,1.24214404 2.69759284,1.28286473 L0.868628893,1.50959755 C0.534968745,1.56367464 0.294136225,1.5942966 0.205203462,1.90898612 C0.205203462,1.90898612 0.163658229,2.04776224 0.0779711875,2.34876961 C-0.0323833362,2.75174159 -0.0768497178,2.70776324 0.301276812,2.70776324 L10.6973221,2.70776324 C11.0754486,2.7110209 11.034228,2.75174159 10.9206277,2.34876961 Z M9.74145717,3.79060793 L1.25714173,3.79060793 C0.686219357,3.79060793 0.658955298,3.86520824 0.693359943,4.28837769 L1.33601276,12.4992984 C1.39119002,12.9156267 1.43241068,13 1.93776948,13 L9.06082942,13 C9.56618822,13 9.60740888,12.915301 9.66258615,12.4992984 L10.305239,4.28837769 C10.3396436,3.86162482 10.3123795,3.79060793 9.74145717,3.79060793 Z"></path>
            </g>
        </g>
    </g>
</svg>