<?xml version="1.0" encoding="UTF-8" standalone="no"?>
<svg width="28px" height="28px" viewBox="0 0 28 28" version="1.1" xmlns="http://www.w3.org/2000/svg" xmlns:xlink="http://www.w3.org/1999/xlink">
    <!-- Generator: Sketch 49.2 (51160) - http://www.bohemiancoding.com/sketch -->
    <title>btn_info</title>
    <desc>Created with Sketch.</desc>
    <defs></defs>
    <g id="Page-1" stroke="none" stroke-width="1" fill="none" fill-rule="evenodd">
        <g id="xstudio_appstorehome_v1.1" transform="translate(-1310.000000, -425.000000)" fill="#DCDFE1" fill-rule="nonzero">
            <g id="btn_info" transform="translate(1310.000000, 425.000000)">
                <g id="Shape">
                    <path d="M12.5543189,0.070235743 C11.0026074,0.227937714 9.28003901,0.727612982 7.83375586,1.44412846 C4.98033234,2.85744667 2.85662182,4.97442422 1.44976717,7.82763 C-1.94936967,14.6779522 0.831768261,23.0075875 7.66947044,26.478745 C14.5663154,29.9827571 22.9751576,27.2281151 26.4794371,20.3252255 C29.227718,14.9213618 28.1822913,8.3864435 23.8957274,4.10677769 C20.9305898,1.13529543 16.7488829,-0.350588539 12.5543189,0.070235743 Z M16.4597406,5.32296843 C16.9331683,5.50038315 17.3734533,5.90149469 17.5971671,6.36174446 C17.7417383,6.66400657 17.7745954,6.81542332 17.7745954,7.19653642 C17.768024,7.7882045 17.59031,8.17617421 17.117168,8.60328372 C15.7957418,9.81290355 13.5406029,8.9386861 13.5406029,7.229391 C13.5406029,6.98626712 13.57346,6.69029024 13.6194599,6.56544284 C13.810031,6.00662934 14.3228872,5.50695407 14.9211719,5.30325569 C15.3485997,5.15212463 16.0257414,5.16526646 16.4597406,5.32296843 Z M14.908029,11.1739401 C15.4405995,11.3644967 15.9665986,11.8247464 16.1703125,12.304709 C16.5188833,13.1066464 16.4268835,13.9220113 15.7100276,16.4595274 C15.0920287,18.6553559 14.9868861,19.1221766 14.9868861,19.7007029 C14.9868861,20.2266618 15.1183144,20.5289239 15.4143139,20.6671988 C15.7297419,20.8183299 16.5780261,20.8051881 17.0974537,20.6409152 C17.3274533,20.575206 17.5248816,20.5226387 17.5380244,20.5357805 C17.5511672,20.5489224 17.5051673,20.7657626 17.4394531,21.015743 L17.3211676,21.462851 L16.7951686,21.6731203 C15.3094569,22.2713593 14.4217442,22.4356322 13.4748887,22.291072 C12.5806046,22.1530828 11.9626057,21.7585422 11.6011778,21.0880231 C11.4500352,20.8054737 11.4040353,20.6409152 11.384321,20.1940929 C11.3448925,19.4250101 11.4434638,18.9187639 12.035177,16.8214991 C12.6334616,14.6848088 12.7517472,14.1588499 12.7517472,13.6066073 C12.7517472,13.0609356 12.6203188,12.7715297 12.3177479,12.6466823 C11.9757485,12.5021221 11.1737499,12.5218349 10.6543223,12.6795368 L10.2400373,12.8109552 L10.2794658,12.5678313 C10.3977513,11.8447449 10.3714657,11.8710285 11.2591784,11.548768 C12.0283199,11.2659329 12.6266045,11.0885182 13.0474609,11.0162382 C13.4880316,10.950529 14.4940298,11.0359509 14.908029,11.1739401 Z"></path>
                </g>
            </g>
        </g>
    </g>
</svg>