<?xml version="1.0" encoding="UTF-8" standalone="no"?>
<svg width="16px" height="16px" viewBox="0 0 16 16" version="1.1" xmlns="http://www.w3.org/2000/svg" xmlns:xlink="http://www.w3.org/1999/xlink">
    <!-- Generator: Sketch 48.2 (47327) - http://www.bohemiancoding.com/sketch -->
    <title>icon_waypoint_16x16</title>
    <desc>Created with Sketch.</desc>
    <defs></defs>
    <g id="icons_recording切图专用" stroke="none" stroke-width="1" fill="none" fill-rule="evenodd" transform="translate(-55.000000, -41.000000)">
        <g id="icon_waypoint_16x16" transform="translate(55.000000, 41.000000)" fill="#444444" fill-rule="nonzero">
            <path d="M4.39131178,15.999997 L13.5578827,15.999997 C14.3465663,15.999997 15,15.4152603 15,14.675758 C15,13.9362558 14.3465663,13.3517198 13.5578827,13.3517198 L3.08177227,13.3517198 C2.78557914,13.3517198 2.55947751,13.1493804 2.55947751,12.9185368 C2.55947751,12.6874926 2.78557914,12.4851532 3.08177227,12.4851532 L4.71874803,12.4851532 C4.84022299,12.4856866 4.95693365,12.4390445 5.04317656,12.3554989 C5.12941947,12.2719533 5.17812137,12.1583563 5.17855652,12.0397255 C5.17806688,11.9211113 5.12934759,11.8075453 5.04311656,11.7240112 C4.95688553,11.6404771 4.8402065,11.5938177 4.71874803,11.5942978 L3.08177227,11.5942978 C2.29329424,11.5942978 1.63986055,12.1788338 1.63986055,12.9185368 C1.63986055,13.6580391 2.29329424,14.2425751 3.08177227,14.2425751 L13.5578827,14.2425751 C13.8542814,14.2425751 14.080383,14.4447138 14.080383,14.675758 C14.080383,14.9068023 13.8542814,15.108941 13.5578827,15.108941 L4.39131178,15.108941 C4.13835401,15.1080523 3.93252301,15.3075357 3.93150328,15.5545694 C3.93263613,15.8015245 4.13843393,16.0008859 4.39131178,15.999997 Z M3.54767246,9.26423597 C3.52458805,9.24155587 3.49640079,9.20999079 3.46772754,9.17070979 C2.68164309,8.1905554 1.33983217,6.33172252 1.0513987,4.72400746 C1.001585,4.3978349 1.00012704,4.18973914 1.00012704,4.17173535 C0.991136285,3.04077 1.45962804,1.9801831 2.3178816,1.18614581 C3.14454597,0.42110163 4.23558746,7.10542736e-15 5.38980729,7.10542736e-15 C6.54840102,7.10542736e-15 7.64235843,0.42110163 8.46902282,1.18614581 C9.32265949,1.97597441 9.78823533,3.03118356 9.77924456,4.15396538 C9.77924456,4.17664549 9.7777866,4.38403979 9.72602896,4.72657944 C9.45727798,6.22907756 8.26855306,7.96468969 7.31237305,9.16229245 C7.28394279,9.20227488 7.25478355,9.23477523 7.23194214,9.25815677 C6.56322362,10.0355932 5.89013122,10.5607427 5.86097198,10.5827213 L5.39248023,10.9453691 L4.92204453,10.5855271 C4.89288529,10.5635485 4.21760595,10.0444781 3.54767246,9.26423597 Z M5.28735952,6.49354814 C6.52427251,6.49354814 7.52698861,5.44729709 7.52698861,4.15668102 C7.52698861,2.86606494 6.52427251,1.81981389 5.28735952,1.81981389 C4.05044653,1.81981389 3.04773044,2.86606494 3.04773044,4.15668102 C3.04773044,5.44729709 4.05044653,6.49354814 5.28735952,6.49354814 Z"></path>
        </g>
    </g>
</svg>