<?xml version="1.0" encoding="UTF-8" standalone="no"?>
<svg width="8px" height="12px" viewBox="0 0 8 12" version="1.1" xmlns="http://www.w3.org/2000/svg" xmlns:xlink="http://www.w3.org/1999/xlink">
    <!-- Generator: Sketch 48.2 (47327) - http://www.bohemiancoding.com/sketch -->
    <title>icon_rename_white</title>
    <desc>Created with Sketch.</desc>
    <defs></defs>
    <g id="icons_recording切图专用" stroke="none" stroke-width="1" fill="none" fill-rule="evenodd" transform="translate(-191.000000, -32.000000)">
        <g id="2icons" transform="translate(178.000000, 31.000000)" fill="#FFFFFF" fill-rule="nonzero">
            <g id="icon_rename_white" transform="translate(13.000000, 1.000000)">
                <path d="M8,1.13142858 L8,0.685714297 C8,0.308571447 7.7,1.74107142e-08 7.33333334,0 L2.66666666,0 C2.3,0 2,0.30857143 2,0.685714297 L2,1.37142858 C2,1.74857143 2.3,2.05714286 2.66666666,2.05714286 C3.23333333,2.05714286 3.66666666,2.60571428 3.53333333,3.15428572 L2.33333334,9.18857143 C2.23333334,9.63428571 1.86666667,9.94285714 1.46666667,9.94285714 L0.666666661,9.94285714 C0.300000002,9.94285714 0,10.2514286 0,10.6285714 L0,11.3142857 C0,11.6914286 0.300000002,12 0.666666661,12 L5.33333334,12 C5.7,12 6,11.6914286 6,11.3142857 L6,10.6285714 C6,10.2514286 5.7,9.94285716 5.33333334,9.94285714 C4.76666667,9.94285714 4.33333334,9.39428572 4.46666667,8.8457143 L5.66666666,2.81142857 C5.76666666,2.36571429 6.13333333,2.05714286 6.53333333,2.05714286 L7.10000001,2.05714286 C7.60000002,2.05714286 8.00000002,1.64571429 8,1.13142858 Z"></path>
            </g>
        </g>
    </g>
</svg>