<?xml version="1.0" encoding="UTF-8" standalone="no"?>
<svg width="14px" height="14px" viewBox="0 0 14 14" version="1.1" xmlns="http://www.w3.org/2000/svg" xmlns:xlink="http://www.w3.org/1999/xlink">
    <!-- Generator: Sketch 48.2 (47327) - http://www.bohemiancoding.com/sketch -->
    <title>icon_singlepoint_14x14_white</title>
    <desc>Created with Sketch.</desc>
    <defs></defs>
    <g id="icons_recording切图专用" stroke="none" stroke-width="1" fill="none" fill-rule="evenodd" transform="translate(-24.000000, -10.000000)">
        <g id="icon_singlepoint_14x14_white" transform="translate(24.000000, 10.000000)" fill="#FFFFFF" fill-rule="nonzero">
            <path d="M12.4426366,6.85781991 C11.6873471,6.09952607 10.4788838,6.09952607 9.72359428,6.85781991 C9.3459495,7.23696682 9.11936264,7.69194313 9.11936264,8.22274882 C9.11936264,8.60189573 9.19489159,8.98104265 9.42147846,9.28436019 L7.0045519,11.7867299 C6.40032027,12.3933649 5.41844385,12.3933649 4.88974117,11.7867299 C4.58762535,11.4834123 4.43656744,11.1042654 4.43656744,10.7251185 C4.43656744,10.3459716 4.58762535,9.96682464 4.88974117,9.66350711 L9.64806532,4.88625592 C10.5544128,3.97630332 10.5544128,2.53554502 9.64806532,1.62559242 C8.81724682,0.791469194 7.30666772,0.791469194 6.40032027,1.62559242 L3.98339371,4.0521327 C3.22810417,3.52132701 2.1706988,3.5971564 1.56646716,4.27962085 C0.811177613,5.03791469 0.811177613,6.25118483 1.56646716,7.00947867 C1.94411193,7.38862559 2.39728566,7.61611374 2.92598835,7.61611374 C3.45469103,7.61611374 3.90786476,7.38862559 4.28550953,7.00947867 C4.96527013,6.32701422 5.04079908,5.34123223 4.5120964,4.58293839 L6.85349399,2.23222749 C7.45772563,1.62559242 8.43960205,1.62559242 8.96830473,2.23222749 C9.57253637,2.83886256 9.57253637,3.82464455 8.96830473,4.35545024 L4.20998058,9.13270142 C3.75680685,9.58767773 3.53021998,10.1184834 3.53021998,10.7251185 C3.53021998,11.3317536 3.75680685,11.9383886 4.20998058,12.3175355 C4.66315431,12.7725118 5.19185699,13 5.79608863,13 C6.40032027,13 7.0045519,12.7725118 7.38219668,12.3175355 L9.95018114,9.81516588 C10.252297,10.042654 10.6299417,10.1184834 11.0075865,10.1184834 C11.5362892,10.1184834 11.9894629,9.89099526 12.3671077,9.58767773 C13.1979262,8.82938389 13.1979262,7.61611374 12.4426366,6.85781991 Z"></path>
        </g>
    </g>
</svg>