<?xml version="1.0" encoding="UTF-8" standalone="no"?>
<svg width="14px" height="14px" viewBox="0 0 14 14" version="1.1" xmlns="http://www.w3.org/2000/svg" xmlns:xlink="http://www.w3.org/1999/xlink">
    <!-- Generator: Sketch 48.2 (47327) - http://www.bohemiancoding.com/sketch -->
    <title>icon_waypoint_14x14_dark</title>
    <desc>Created with Sketch.</desc>
    <defs></defs>
    <g id="icons_recording切图专用" stroke="none" stroke-width="1" fill="none" fill-rule="evenodd" transform="translate(-55.000000, -25.000000)">
        <g id="icon_waypoint_14x14_dark" transform="translate(55.000000, 25.000000)" fill="#444444" fill-rule="nonzero">
            <path d="M3.90683866,13.9999974 L11.7638995,13.9999974 C12.439914,13.9999974 13,13.4883528 13,12.8412883 C13,12.1942238 12.439914,11.6827548 11.7638995,11.6827548 L2.78437623,11.6827548 C2.5304964,11.6827548 2.33669501,11.5057078 2.33669501,11.3037197 C2.33669501,11.101556 2.5304964,10.924509 2.78437623,10.924509 L4.18749831,10.924509 C4.29161971,10.9249758 4.39165742,10.8841639 4.46557991,10.8110615 C4.53950241,10.7379591 4.58124689,10.6385617 4.58161987,10.5347598 C4.58120018,10.4309724 4.53944079,10.3316021 4.46552848,10.2585098 C4.39161616,10.1854175 4.29160557,10.1445905 4.18749831,10.1450106 L2.78437623,10.1450106 C2.10853792,10.1450106 1.5484519,10.6564796 1.5484519,11.3037197 C1.5484519,11.9507842 2.10853792,12.4622532 2.78437623,12.4622532 L11.7638995,12.4622532 C12.0179555,12.4622532 12.2117569,12.6391245 12.2117569,12.8412883 C12.2117569,13.043452 12.0179555,13.2203233 11.7638995,13.2203233 L3.90683866,13.2203233 C3.69001772,13.2195458 3.51359115,13.3940937 3.51271709,13.6102482 C3.51368811,13.826334 3.69008622,14.0007751 3.90683866,13.9999974 Z M2.96729556,7.57142217 C2.94946993,7.5528863 2.92770392,7.52708897 2.90556263,7.49498562 C2.2985535,6.69393061 1.26241612,5.17475423 1.03968973,3.86080999 C1.00122392,3.59423753 1.0000981,3.42416621 1.0000981,3.40945218 C0.993155499,2.48514324 1.35492168,1.6183528 2.01765932,0.969406509 C2.656004,0.344155549 3.4984989,7.10542736e-15 4.3897797,7.10542736e-15 C5.284438,7.10542736e-15 6.12918456,0.344155549 6.76752925,0.969406509 C7.42670175,1.61491315 7.78621629,2.47730849 7.77927368,3.39492923 C7.77927368,3.4134651 7.77814785,3.58296314 7.73818095,3.862912 C7.53065325,5.09086514 6.61272785,6.50933636 5.87437207,7.48810634 C5.85241841,7.52078296 5.82990184,7.54734466 5.81226386,7.56645379 C5.29588391,8.2018326 4.77612648,8.6310238 4.75360991,8.6489864 L4.39184373,8.94536911 L4.02857644,8.65127949 C4.00605987,8.6333169 3.4846137,8.20909406 2.96729556,7.57142217 Z M4.4396514,4.99029516 C5.51001711,4.99029516 6.37771996,4.12172755 6.37771996,3.0502951 C6.37771996,1.97886266 5.51001711,1.11029505 4.4396514,1.11029505 C3.3692857,1.11029505 2.50158285,1.97886266 2.50158285,3.0502951 C2.50158285,4.12172755 3.3692857,4.99029516 4.4396514,4.99029516 Z"></path>
        </g>
    </g>
</svg>