<?xml version="1.0" encoding="UTF-8" standalone="no"?>
<svg width="21px" height="27px" viewBox="0 0 21 27" version="1.1" xmlns="http://www.w3.org/2000/svg" xmlns:xlink="http://www.w3.org/1999/xlink">
    <!-- Generator: Sketch 48.2 (47327) - http://www.bohemiancoding.com/sketch -->
    <title>icon_addfile</title>
    <desc>Created with Sketch.</desc>
    <defs></defs>
    <g id="xstudio_recording_v1.0" stroke="none" stroke-width="1" fill="none" fill-rule="evenodd" transform="translate(-1878.000000, -266.000000)">
        <g id="icon_addfile" transform="translate(1878.000000, 266.000000)">
            <g>
                <path d="M13.6005051,-8.8817842e-16 L21,7.39949494 L21,25 C21,26.1045695 20.1045695,27 19,27 L2,27 C0.8954305,27 1.3527075e-16,26.1045695 0,25 L0,2 C-1.3527075e-16,0.8954305 0.8954305,2.02906125e-16 2,0 L13.6005051,0 Z" id="Combined-Shape" fill="#575C62"></path>
                <path d="M10.5785833,15.3333333 L13,15.3333333 L13,17.2457608 L10.5785833,17.2457608 L10.5785833,20 L8.28929164,20 L8.28929164,17.2457608 L6,17.2457608 L6,15.3333333 L8.28929164,15.3333333 L8.28929164,13 L10.5785833,13 L10.5785833,15.3333333 Z" id="Combined-Shape" fill="#FFFFFF"></path>
                <polygon id="Triangle-5" fill="#FFFFFF" transform="translate(13.676777, 7.323223) rotate(-135.000000) translate(-13.676777, -7.323223) " points="13.6767767 5.0732233 18.1767767 9.5732233 9.1767767 9.5732233"></polygon>
            </g>
        </g>
    </g>
</svg>