<?xml version="1.0" encoding="UTF-8" standalone="no"?>
<svg width="22px" height="22px" viewBox="0 0 22 22" version="1.1" xmlns="http://www.w3.org/2000/svg" xmlns:xlink="http://www.w3.org/1999/xlink">
    <!-- Generator: Sketch 49.3 (51167) - http://www.bohemiancoding.com/sketch -->
    <title>icon_timer</title>
    <desc>Created with Sketch.</desc>
    <defs></defs>
    <g id="Page-1" stroke="none" stroke-width="1" fill="none" fill-rule="evenodd">
        <g id="recording09" transform="translate(-608.000000, -799.000000)" fill="#FFFFFF" fill-rule="nonzero">
            <g id="recordingpagev1.0_waypoint04">
                <g id="singlepoint_display-panel" transform="translate(370.000000, 609.000000)">
                    <g id="icon_timer" transform="translate(238.000000, 190.000000)">
                        <path d="M11,0 C4.92709152,0 0,4.92709152 0,11.1428527 C0,17.0729085 4.92709152,22 11,22 C17.0729085,22 22,17.0729085 22,11.1428527 C22,4.92709152 17.0729085,0 11,0 Z M16.5483904,14 L10.4515844,14 C9.67030418,14 9,13.3616064 9,12.6111071 L9,5.38889292 C9,4.63839357 9.67030418,4 10.4515844,4 C11.3296621,4 11.9999663,4.63839357 11.903194,5.38889292 L11.903194,11.2222142 L16.5483904,11.2222142 C17.3296958,11.1428502 18,11.7812438 18,12.6111071 C18,13.3616064 17.3296958,14 16.5483904,14 Z"></path>
                    </g>
                </g>
            </g>
        </g>
    </g>
</svg>