<?xml version="1.0" encoding="UTF-8" standalone="no"?>
<svg width="16px" height="16px" viewBox="0 0 16 16" version="1.1" xmlns="http://www.w3.org/2000/svg" xmlns:xlink="http://www.w3.org/1999/xlink">
    <!-- Generator: Sketch 48.2 (47327) - http://www.bohemiancoding.com/sketch -->
    <title>icon_singlepoint_16x16</title>
    <desc>Created with Sketch.</desc>
    <defs></defs>
    <g id="icons_recording切图专用" stroke="none" stroke-width="1" fill="none" fill-rule="evenodd" transform="translate(-24.000000, -41.000000)">
        <g id="icon_singlepoint_16x16" transform="translate(24.000000, 41.000000)" fill="#444444" fill-rule="nonzero">
            <path d="M14.3961897,8.34597156 C13.5779594,7.52448657 12.2687908,7.52448657 11.4505605,8.34597156 C11.0414453,8.75671406 10.7959762,9.24960506 10.7959762,9.82464455 C10.7959762,10.235387 10.8777992,10.6461295 11.1232683,10.9747235 L8.50493123,13.685624 C7.85034696,14.342812 6.78664751,14.342812 6.21388627,13.685624 C5.88659413,13.35703 5.72294806,12.9462875 5.72294806,12.535545 C5.72294806,12.1248025 5.88659413,11.71406 6.21388627,11.385466 L11.3687374,6.21011058 C12.3506138,5.22432859 12.3506138,3.66350711 11.3687374,2.67772512 C10.4686841,1.77409163 8.83222337,1.77409163 7.85034696,2.67772512 L5.23200986,5.30647709 C4.41377951,4.7314376 3.26825703,4.8135861 2.61367276,5.55292259 C1.79544241,6.37440758 1.79544241,7.68878357 2.61367276,8.51026856 C3.02278793,8.92101106 3.51372614,9.16745656 4.08648738,9.16745656 C4.65924862,9.16745656 5.15018682,8.92101106 5.55930199,8.51026856 C6.2957093,7.77093207 6.37753234,6.70300158 5.8047711,5.88151659 L8.34128516,3.33491311 C8.99586944,2.67772512 10.0595689,2.67772512 10.6323301,3.33491311 C11.2869144,3.99210111 11.2869144,5.0600316 10.6323301,5.63507109 L5.47747896,10.8104265 C4.98654075,11.3033175 4.74107165,11.878357 4.74107165,12.535545 C4.74107165,13.192733 4.98654075,13.849921 5.47747896,14.2606635 C5.96841717,14.7535545 6.54117841,15 7.19576268,15 C7.85034696,15 8.50493123,14.7535545 8.9140464,14.2606635 L11.6960296,11.549763 C12.0233217,11.7962085 12.4324369,11.878357 12.841552,11.878357 C13.4143133,11.878357 13.9052515,11.6319115 14.3143667,11.3033175 C15.21442,10.4818325 15.21442,9.16745656 14.3961897,8.34597156 Z"></path>
        </g>
    </g>
</svg>