<?xml version="1.0" encoding="UTF-8" standalone="no"?>
<svg width="16px" height="16px" viewBox="0 0 16 16" version="1.1" xmlns="http://www.w3.org/2000/svg" xmlns:xlink="http://www.w3.org/1999/xlink">
    <!-- Generator: Sketch 48.2 (47327) - http://www.bohemiancoding.com/sketch -->
    <title>icon_addnewprojectfile</title>
    <desc>Created with Sketch.</desc>
    <defs></defs>
    <g id="icons_recording切图专用" stroke="none" stroke-width="1" fill="none" fill-rule="evenodd" transform="translate(-103.000000, -29.000000)">
        <g id="addnewproject" transform="translate(103.000000, 29.000000)" fill="#8E959D" fill-rule="nonzero">
            <g id="icon_addnewproject">
                <path d="M8,0 C3.58162753,0 0,3.5818465 0,7.99998879 C0,12.4183551 3.58162753,16 8,16 C12.4183725,16 16,12.4183775 16,7.99998879 C16,3.58182411 12.4183725,0 8,0 Z M10.9066204,8.38753814 L8.38756241,8.38753814 L8.38756241,10.9064059 C8.38756241,11.1205957 8.21403933,11.2941176 8.00002172,11.2941176 C7.78600411,11.2941176 7.61248102,11.1205957 7.61248102,10.9064059 L7.612481,8.38753814 L5.09340136,8.38753814 C4.87940546,8.38753814 4.70588235,8.2140162 4.70588235,8 C4.70588235,7.7859838 4.87940544,7.61246186 5.09340136,7.61246186 L7.6124593,7.61246186 L7.6124593,5.0934205 C7.6124593,4.879209 7.78598239,4.70588235 8,4.70588235 C8.21401761,4.70588235 8.3875407,4.879209 8.3875407,5.0934205 L8.3875407,7.61246184 L10.9065986,7.61246184 C11.1205945,7.61246184 11.2941176,7.78598378 11.2941176,7.99999998 C11.2941394,8.21401618 11.1206163,8.38753814 10.9066204,8.38753814 Z" id="Shape"></path>
            </g>
        </g>
    </g>
</svg>