<?xml version="1.0" encoding="UTF-8" standalone="no"?>
<svg width="28px" height="28px" viewBox="0 0 28 28" version="1.1" xmlns="http://www.w3.org/2000/svg" xmlns:xlink="http://www.w3.org/1999/xlink">
    <!-- Generator: Sketch 49.3 (51167) - http://www.bohemiancoding.com/sketch -->
    <title>icon_timer</title>
    <desc>Created with Sketch.</desc>
    <defs>
        <path d="M11,0 C4.92709152,0 0,4.92709152 0,11.1428527 C0,17.0729085 4.92709152,22 11,22 C17.0729085,22 22,17.0729085 22,11.1428527 C22,4.92709152 17.0729085,0 11,0 Z M16.5483904,14 L10.4515844,14 C9.67030418,14 9,13.3616064 9,12.6111071 L9,5.38889292 C9,4.63839357 9.67030418,4 10.4515844,4 C11.3296621,4 11.9999663,4.63839357 11.903194,5.38889292 L11.903194,11.2222142 L16.5483904,11.2222142 C17.3296958,11.1428502 18,11.7812438 18,12.6111071 C18,13.3616064 17.3296958,14 16.5483904,14 Z" id="path-1"></path>
    </defs>
    <g id="Page-1" stroke="none" stroke-width="1" fill="none" fill-rule="evenodd">
        <g id="recording09" transform="translate(-605.000000, -796.000000)" fill-rule="nonzero">
            <g id="recordingpagev1.0_waypoint04">
                <g id="singlepoint_display-panel" transform="translate(367.000000, 609.000000)">
                    <g id="icon_timer" transform="translate(241.000000, 190.000000)">
                        <g>
                            <use fill="#FFFFFF" fill-rule="evenodd" xlink:href="#path-1"></use>
                            <path stroke="#52BF53" stroke-width="3" d="M11,-1.5 C17.9262481,-1.5 23.5,4.12374374 23.5,11.1428527 C23.5,17.9264718 17.8760295,23.5 11,23.5 C4.12397046,23.5 -1.5,17.9264718 -1.5,11.1428527 C-1.5,4.12374374 4.07375186,-1.5 11,-1.5 Z M10.5,12.5 L10.5,5.38889292 C10.5,5.47362814 10.4861721,5.49569973 10.4609015,5.49938903 C10.4578591,5.47606369 10.4109316,5.40781349 10.4103906,5.27680673 L10.403194,5.38889292 L10.403194,12.7222142 L16.5483904,12.7222142 L16.6733116,12.7158858 C16.5671966,12.7157609 16.5,12.6487295 16.5,12.6111071 C16.5,12.5164766 16.5172457,12.5 16.5483904,12.5 L10.5,12.5 Z M10.4103906,5.27680673 C10.41029,5.25242765 10.4117956,5.22587534 10.4155105,5.19706525 L10.4103906,5.27680673 Z"></path>
                        </g>
                    </g>
                </g>
            </g>
        </g>
    </g>
</svg>