<?xml version="1.0" encoding="UTF-8" standalone="no"?>
<svg width="24px" height="25px" viewBox="0 0 24 25" version="1.1" xmlns="http://www.w3.org/2000/svg" xmlns:xlink="http://www.w3.org/1999/xlink">
    <!-- Generator: Sketch 48.2 (47327) - http://www.bohemiancoding.com/sketch -->
    <title>icon_back</title>
    <desc>Created with Sketch.</desc>
    <defs>
        <path d="M4.40737715,6.0873511 L13.8296775,6.0873511 C18.5458572,6.0873511 23,9.88645936 23,14.602616 C23,19.0983261 19.5477324,22.7607359 15.1397466,23.0932962 L15.1397466,23.1179269 L7.27947022,23.1179269 L7.27947022,21.8078578 L14.4847121,21.8078578 C18.4148503,21.8078578 21.689977,18.5327542 21.689977,14.602616 C21.689977,10.6724778 17.7598157,7.39737414 13.8296775,7.39737414 L4.55458526,7.39737414 L7.55852484,10.4012988 L6.63099869,11.3274893 L2,6.69520105 L2.03935107,6.65585096 L2.01314905,6.62968608 L6.64407865,2 L7.57160481,2.92490095 L4.40737715,6.0873511 Z" id="path-1"></path>
    </defs>
    <g id="xstudio_recording_v1.0" stroke="none" stroke-width="1" fill="none" fill-rule="evenodd" transform="translate(-17.000000, -208.000000)">
        <g id="icon_back" transform="translate(17.000000, 208.000000)" fill-rule="nonzero">
            <g>
                <use fill="#444444" fill-rule="evenodd" xlink:href="#path-1"></use>
                <path stroke="#444444" stroke-width="1" d="M2.68092044,6.66910586 L2.35360261,6.34169688 L2.03933397,6.65587803 L2.36665496,6.98328695 L2.68092044,6.66910586 Z M5.61496372,5.5873511 L13.8296775,5.5873511 C18.9367864,5.5873511 23.5,9.71177827 23.5,14.602616 C23.5,19.180351 20.1054117,22.9787236 15.6397466,23.5451606 L15.6397466,23.6179269 L6.77947022,23.6179269 L6.77947022,21.3078578 L14.4847121,21.3078578 C18.1387127,21.3078578 21.189977,18.256607 21.189977,14.602616 C21.189977,11.0717725 17.618757,7.89737414 13.8296775,7.89737414 L5.76169628,7.89737414 L8.26588733,10.4015527 L6.63069481,12.0343906 L1.29293804,6.69514744 L1.33198909,6.65609737 L1.30574393,6.6298894 L6.64362543,1.29344125 L8.27931262,2.9244989 L5.61496372,5.5873511 Z"></path>
            </g>
        </g>
    </g>
</svg>