<?xml version="1.0" encoding="UTF-8" standalone="no"?>
<svg width="14px" height="16px" viewBox="0 0 14 16" version="1.1" xmlns="http://www.w3.org/2000/svg" xmlns:xlink="http://www.w3.org/1999/xlink">
    <!-- Generator: Sketch 48.2 (47327) - http://www.bohemiancoding.com/sketch -->
    <title>icon_pathfile_white</title>
    <desc>Created with Sketch.</desc>
    <defs></defs>
    <g id="xstudio_recording_v1.0" stroke="none" stroke-width="1" fill="none" fill-rule="evenodd" transform="translate(-1516.000000, -380.000000)">
        <g id="icon_pathfile" transform="translate(1516.000000, 380.000000)" fill="#FFFFFF" fill-rule="nonzero">
            <g id="Shape">
                <path d="M3.39131178,15.999997 L12.5578827,15.999997 C13.3465663,15.999997 14,15.4152603 14,14.675758 C14,13.9362558 13.3465663,13.3517198 12.5578827,13.3517198 L2.08177227,13.3517198 C1.78557914,13.3517198 1.55947751,13.1493804 1.55947751,12.9185368 C1.55947751,12.6874926 1.78557914,12.4851532 2.08177227,12.4851532 L3.71874803,12.4851532 C3.84022299,12.4856866 3.95693365,12.4390445 4.04317656,12.3554989 C4.12941947,12.2719533 4.17812137,12.1583563 4.17855652,12.0397255 C4.17806688,11.9211113 4.12934759,11.8075453 4.04311656,11.7240112 C3.95688553,11.6404771 3.8402065,11.5938177 3.71874803,11.5942978 L2.08177227,11.5942978 C1.29329424,11.5942978 0.639860546,12.1788338 0.639860546,12.9185368 C0.639860546,13.6580391 1.29329424,14.2425751 2.08177227,14.2425751 L12.5578827,14.2425751 C12.8542814,14.2425751 13.080383,14.4447138 13.080383,14.675758 C13.080383,14.9068023 12.8542814,15.108941 12.5578827,15.108941 L3.39131178,15.108941 C3.13835401,15.1080523 2.93252301,15.3075357 2.93150328,15.5545694 C2.93263613,15.8015245 3.13843393,16.0008859 3.39131178,15.999997 Z M2.54767246,9.26423597 C2.52458805,9.24155587 2.49640079,9.20999079 2.46772754,9.17070979 C1.68164309,8.1905554 0.339832166,6.33172252 0.0513987045,4.72400746 C0.00158499594,4.3978349 0.000127041879,4.18973914 0.000127041879,4.17173535 C-0.00886371457,3.04077 0.459628035,1.9801831 1.3178816,1.18614581 C2.14454597,0.42110163 3.23558746,7.10542736e-15 4.38980729,7.10542736e-15 C5.54840102,7.10542736e-15 6.64235843,0.42110163 7.46902282,1.18614581 C8.32265949,1.97597441 8.78823533,3.03118356 8.77924456,4.15396538 C8.77924456,4.17664549 8.7777866,4.38403979 8.72602896,4.72657944 C8.45727798,6.22907756 7.26855306,7.96468969 6.31237305,9.16229245 C6.28394279,9.20227488 6.25478355,9.23477523 6.23194214,9.25815677 C5.56322362,10.0355932 4.89013122,10.5607427 4.86097198,10.5827213 L4.39248023,10.9453691 L3.92204453,10.5855271 C3.89288529,10.5635485 3.21760595,10.0444781 2.54767246,9.26423597 Z M4.28735952,6.49354814 C5.52427251,6.49354814 6.52698861,5.44729709 6.52698861,4.15668102 C6.52698861,2.86606494 5.52427251,1.81981389 4.28735952,1.81981389 C3.05044653,1.81981389 2.04773044,2.86606494 2.04773044,4.15668102 C2.04773044,5.44729709 3.05044653,6.49354814 4.28735952,6.49354814 Z"></path>
            </g>
        </g>
    </g>
</svg>