<?xml version="1.0" encoding="UTF-8" standalone="no"?>
<svg width="24px" height="24px" viewBox="0 0 24 24" version="1.1" xmlns="http://www.w3.org/2000/svg" xmlns:xlink="http://www.w3.org/1999/xlink">
    <!-- Generator: Sketch 48.2 (47327) - http://www.bohemiancoding.com/sketch -->
    <title>more</title>
    <desc>Created with Sketch.</desc>
    <defs></defs>
    <g id="xstudio_recording_v1.0" stroke="none" stroke-width="1" fill="none" fill-rule="evenodd" transform="translate(-1654.000000, -1229.000000)">
        <g id="Group-3" transform="translate(1654.000000, 1229.000000)" fill="#7A7A7A" fill-rule="nonzero">
            <g id="更多">
                <path d="M12,0 C5.3724413,0 0,5.37276975 0,11.9999832 C0,18.6275326 5.3724413,24 12,24 C18.6275587,24 24,18.6275662 24,11.9999832 C24,5.37273617 18.6275587,0 12,0 Z M16.3599305,12.5813072 L12.5813436,12.5813072 L12.5813436,16.3596088 C12.5813436,16.6808935 12.321059,16.9411765 12.0000326,16.9411765 C11.6790062,16.9411765 11.4187215,16.6808936 11.4187215,16.3596088 L11.4187215,12.5813072 L7.64010203,12.5813072 C7.31910819,12.5813072 7.05882353,12.3210243 7.05882353,12 C7.05882353,11.6789757 7.31910816,11.4186928 7.64010203,11.4186928 L11.418689,11.4186928 L11.418689,7.64013074 C11.418689,7.3188135 11.6789736,7.05882353 12,7.05882353 C12.3210264,7.05882353 12.581311,7.3188135 12.581311,7.64013074 L12.581311,11.4186928 L16.359898,11.4186928 C16.6808918,11.4186928 16.9411765,11.6789757 16.9411765,12 C16.941209,12.3210243 16.6809244,12.5813072 16.3599305,12.5813072 Z" id="Shape"></path>
            </g>
        </g>
    </g>
</svg>