<svg id="图层_1" data-name="图层 1" xmlns="http://www.w3.org/2000/svg" viewBox="0 0 19.33 21.03"><defs><style>.cls-1{fill:#595757;}</style></defs><title>0</title><path class="cls-1" d="M11.08,21H5.47a3.23,3.23,0,0,1-3.39-3V5.21a.53.53,0,0,1,1.06,0V18a2.17,2.17,0,0,0,2.32,2h5.61a.53.53,0,0,1,0,1.06Z"/><path class="cls-1" d="M14.82,21H9.22a.53.53,0,0,1,0-1.06h5.61a2.17,2.17,0,0,0,2.32-2V5.21a.53.53,0,0,1,1.06,0V18A3.23,3.23,0,0,1,14.82,21Z"/><path class="cls-1" d="M7.34,18.16a.53.53,0,0,1-.53-.53V6.07a.53.53,0,0,1,1.06,0V17.63A.53.53,0,0,1,7.34,18.16Z"/><path class="cls-1" d="M12.52,18.16a.53.53,0,0,1-.53-.53V6.07a.53.53,0,0,1,1.06,0V17.63A.53.53,0,0,1,12.52,18.16Z"/><path class="cls-1" d="M11.23,1.06H8.1A.53.53,0,0,1,8.1,0h3.14a.53.53,0,0,1,0,1.06Z"/><path class="cls-1" d="M18.8,3.54H.53a.53.53,0,1,1,0-1.06H18.8a.53.53,0,0,1,0,1.06Z"/></svg>