<svg id="图层_1" data-name="图层 1" xmlns="http://www.w3.org/2000/svg" viewBox="0 0 17.06 21.41"><defs><style>.cls-1{fill:#595757;}</style></defs><title>0</title><path class="cls-1" d="M16.24,21.41H.53A.53.53,0,0,1,0,20.88V4.68A.53.53,0,0,1,.16,4.3L4.41.15A.53.53,0,0,1,4.78,0H16.53a.53.53,0,0,1,.53.53V17.71a.53.53,0,0,1-.53.53h0a.53.53,0,0,1-.53-.53V1.6a.53.53,0,0,0-.53-.53H5.22a.53.53,0,0,0-.37.15L1.23,4.74a.53.53,0,0,0-.16.38V19.81a.53.53,0,0,0,.53.53H16.24a.53.53,0,0,1,.53.53h0A.53.53,0,0,1,16.24,21.41Z"/><path class="cls-1" d="M8.61,6.71h0a.56.56,0,0,1,.56.56v8.78a.56.56,0,0,1-.56.56h0A.56.56,0,0,1,8,16.06V7.28A.56.56,0,0,1,8.61,6.71Z"/><rect class="cls-1" x="3.66" y="11.1" width="9.9" height="1.13" rx="0.56" ry="0.56"/><path class="cls-1" d="M5.27,5.71H.57A.56.56,0,0,1,0,5.15H0a.56.56,0,0,1,.56-.56H4.15A.56.56,0,0,0,4.71,4V.94A.56.56,0,0,1,5.27.37h0a.56.56,0,0,1,.56.56V5.15A.56.56,0,0,1,5.27,5.71Z"/></svg>