<?xml version="1.0" encoding="utf-8"?>
<!-- Generator: Adobe Illustrator 21.0.0, SVG Export Plug-In . SVG Version: 6.00 Build 0)  -->
<svg version="1.1" id="图层_1" xmlns="http://www.w3.org/2000/svg" xmlns:xlink="http://www.w3.org/1999/xlink" x="0px" y="0px"
	 viewBox="0 0 18.4 18.4" style="enable-background:new 0 0 18.4 18.4;" xml:space="preserve">
<style type="text/css">
	.st0{fill:#595757;}
</style>
<title>01</title>
<g>
	<defs>
		<rect id="SVGID_1_" x="-604.3" y="-681.5" width="736" height="534.3"/>
	</defs>
	<clipPath id="SVGID_2_">
		<use xlink:href="#SVGID_1_"  style="overflow:visible;"/>
	</clipPath>
</g>
<path class="st0" d="M9.2,18.4C4.1,18.4,0,14.2,0,9.2S4.1,0,9.2,0s9.2,4.1,9.2,9.2C18.3,14.2,14.2,18.3,9.2,18.4z M9.2,1.1
	c-4.5,0-8.1,3.6-8.1,8.1s3.6,8.1,8.1,8.1s8.1-3.6,8.1-8.1l0,0C17.2,4.7,13.6,1.1,9.2,1.1z"/>
<path class="st0" d="M6.3,5.3H12c0.6,0,1,0.4,1,1V12c0,0.6-0.4,1-1,1H6.3c-0.6,0-1-0.4-1-1V6.3C5.3,5.8,5.8,5.3,6.3,5.3z"/>
</svg>
