<?xml version="1.0" encoding="utf-8"?>
<!-- Generator: Adobe Illustrator 21.0.0, SVG Export Plug-In . SVG Version: 6.00 Build 0)  -->
<svg version="1.1" id="图层_1" xmlns="http://www.w3.org/2000/svg" xmlns:xlink="http://www.w3.org/1999/xlink" x="0px" y="0px"
	 viewBox="0 0 32 32" style="enable-background:new 0 0 32 32;" xml:space="preserve">
<style type="text/css">
	.st0{fill:#515151;}
</style>
<path class="st0" d="M16,1.1C7.8,1.1,1.1,7.8,1.1,16S7.8,30.9,16,30.9S30.9,24.2,30.9,16S24.2,1.1,16,1.1z M16,29.1
	C8.8,29.1,2.9,23.2,2.9,16S8.8,2.9,16,2.9S29.1,8.8,29.1,16C29.1,23.2,23.2,29.1,16,29.1z"/>
<path class="st0" d="M15,19.4c0-0.5,0.4-1,1-1c0,0,0,0,0,0c0.5,0,1,0.5,1,1v6c0,0.5-0.4,1-1,1c0,0,0,0,0,0c-0.5,0-1-0.5-1-1V19.4z"
	/>
<path class="st0" d="M15,2.4c0-0.6,0.4-1.2,1-1.2c0,0,0,0,0,0c0.5,0,1,0.5,1,1.2v7.1c0,0.6-0.4,1.2-1,1.2c0,0,0,0,0,0
	c-0.5,0-1-0.5-1-1.2V2.4z"/>
<path class="st0" d="M11,20v-4.6c0-0.4,0.2-0.7,0.5-0.9l4-2.2c0.3-0.2,0.7-0.2,1,0l3.9,2.2c0.3,0.2,0.5,0.5,0.5,0.9V20
	c0,0.8,0.9,1.3,1.6,0.8l0.1-0.1c0.3-0.2,0.4-0.5,0.4-0.8v-6.2c0-0.4-0.2-0.7-0.5-0.9l-6-3.5c-0.3-0.2-0.7-0.2-1,0l-6,3.5
	C9.2,13.1,9,13.4,9,13.8V20c0,0.3,0.1,0.6,0.4,0.8l0,0C10.1,21.3,11,20.8,11,20z"/>
</svg>
