<?xml version="1.0" standalone="no"?><!DOCTYPE svg PUBLIC "-//W3C//DTD SVG 1.1//EN" "http://www.w3.org/Graphics/SVG/1.1/DTD/svg11.dtd"><svg t="1534128248862" class="icon" style="" viewBox="0 0 1024 1024" version="1.1" xmlns="http://www.w3.org/2000/svg" p-id="1460" xmlns:xlink="http://www.w3.org/1999/xlink" width="32" height="32"><defs><style type="text/css"></style></defs><path d="M512 33.991701C248.564315 33.991701 33.991701 248.564315 33.991701 512c0 263.435685 214.572614 478.008299 478.008299 478.008299s478.008299-214.572614 478.008299-478.008299C990.008299 248.564315 775.435685 33.991701 512 33.991701zM512 932.647303C280.431535 932.647303 91.352697 743.568465 91.352697 512c0-231.568465 189.078838-420.647303 420.647303-420.647303s420.647303 189.078838 420.647303 420.647303C932.647303 743.568465 743.568465 932.647303 512 932.647303z" p-id="1461" fill="#515151"></path><path d="M537.493776 469.510373l231.568465 0c16.995851 0 29.742739 14.871369 29.742739 33.991701s-12.746888 33.991701-29.742739 33.991701L480.13278 537.493776l0-337.792531c0-19.120332 12.746888-33.991701 29.742739-33.991701s29.742739 14.871369 29.742739 33.991701L537.493776 469.510373 537.493776 469.510373z" p-id="1462" fill="#515151"></path></svg>