<?xml version="1.0" encoding="utf-8"?>
<!-- Generator: Adobe Illustrator 21.0.0, SVG Export Plug-In . SVG Version: 6.00 Build 0)  -->
<svg version="1.1" id="图层_1" xmlns="http://www.w3.org/2000/svg" xmlns:xlink="http://www.w3.org/1999/xlink" x="0px" y="0px"
	 viewBox="0 0 20 120" style="enable-background:new 0 0 20 120;" xml:space="preserve">
<style type="text/css">
	.st0{fill:#666666;}
	.st1{fill:#309A00;}
	.st2{fill:#009AFF;}
</style>
<title>资源 1</title>
<g>
	<rect x="9.5" class="st0" width="0.9" height="10.1"/>
</g>
<g>
	<rect x="9.5" y="30" class="st0" width="0.9" height="10.1"/>
</g>
<g>
	<rect x="9.5" y="40" class="st0" width="0.9" height="10.1"/>
</g>
<g>
	<rect x="9.5" y="69.9" class="st0" width="0.9" height="10.1"/>
</g>
<g>
	<path class="st0" d="M10.1,69.5c-5.2,0-9.5-4.3-9.5-9.5s4.3-9.5,9.5-9.5s9.5,4.3,9.5,9.5S15.4,69.5,10.1,69.5z M10.1,51.4
		c-4.7,0-8.6,3.8-8.6,8.6s3.8,8.6,8.6,8.6s8.6-3.8,8.6-8.6l0,0C18.7,55.3,14.8,51.5,10.1,51.4L10.1,51.4z"/>
	<path class="st0" d="M10.1,70c-5.5,0-10-4.5-10-10c0-5.5,4.5-10,10-10s10,4.5,10,10C20.1,65.5,15.6,70,10.1,70z M10.1,51.9
		C5.6,51.9,2,55.5,2,60c0,4.5,3.6,8.1,8.1,8.1c4.5,0,8.1-3.6,8.1-8.1C18.2,55.6,14.6,52,10.1,51.9z"/>
</g>
<g>
	<path class="st1" d="M10.1,29.6c-5.2,0-9.5-4.3-9.5-9.5s4.3-9.5,9.5-9.5s9.5,4.3,9.5,9.5S15.4,29.6,10.1,29.6z M10.1,11.5
		c-4.7,0-8.6,3.8-8.6,8.6s3.8,8.6,8.6,8.6s8.6-3.8,8.6-8.6l0,0C18.7,15.3,14.8,11.5,10.1,11.5L10.1,11.5z"/>
	<path class="st1" d="M10.1,30.1c-5.5,0-10-4.5-10-10s4.5-10,10-10s10,4.5,10,10S15.6,30.1,10.1,30.1z M10.1,12
		C5.6,12,2,15.6,2,20.1c0,4.5,3.6,8.1,8.1,8.1c4.5,0,8.1-3.6,8.1-8.1C18.2,15.6,14.6,12,10.1,12z"/>
</g>
<g>
	<rect x="9.5" y="79.9" class="st0" width="0.9" height="10.1"/>
</g>
<g>
	<rect x="9.5" y="109.9" class="st0" width="0.9" height="10.1"/>
</g>
<g>
	<path class="st2" d="M10.1,109.5c-5.2,0-9.5-4.3-9.5-9.5s4.3-9.5,9.5-9.5s9.5,4.3,9.5,9.5S15.4,109.5,10.1,109.5z M10.1,91.4
		c-4.7,0-8.6,3.8-8.6,8.6c0,4.7,3.8,8.6,8.6,8.6s8.6-3.8,8.6-8.6l0,0C18.7,95.2,14.8,91.4,10.1,91.4L10.1,91.4z"/>
	<path class="st2" d="M10.1,110c-5.5,0-10-4.5-10-10s4.5-10,10-10s10,4.5,10,10S15.6,110,10.1,110z M10.1,91.9
		C5.6,91.9,2,95.5,2,100s3.6,8.1,8.1,8.1c4.5,0,8.1-3.6,8.1-8.1C18.2,95.5,14.6,91.9,10.1,91.9z"/>
</g>
</svg>
